<svg width="396" height="97" viewBox="0 0 396 97" fill="none" xmlns="http://www.w3.org/2000/svg">
<path d="M2.30005 12.33L5.87006 71.94H1.54004V10.28H12.58L28.7 53.77C30.07 57.52 31.4401 59.4 32.8101 59.4C34.1801 59.4 35.62 57.56 37.14 53.88L54.5601 10.28H65.38V71.94H54.5601V12.12L38.55 58.75C35.5201 67.69 32.42 72.17 29.25 72.17C26.08 72.17 22.8701 67.77 19.6201 58.97L2.31006 12.34L2.30005 12.33Z" fill="#EF83B3"/>
<path d="M96.2001 71.94V60.26C95.4801 63.87 93.8001 66.8 91.1701 69.08C88.5401 71.35 85.4501 72.49 81.9201 72.49C78.8901 72.49 76.4601 71.63 74.6201 69.89C72.7801 68.16 71.8601 65.78 71.8601 62.75C71.8601 60.44 72.4401 58.33 73.5901 56.42C74.7401 54.51 76.3801 52.87 78.5101 51.5C80.6401 50.13 83.2001 49.08 86.1901 48.36C89.1801 47.64 92.5201 47.28 96.2001 47.28V44.14C96.2001 40.68 95.4101 38.1 93.8201 36.41C92.2301 34.72 89.6701 33.87 86.1401 33.87C82.6101 33.87 78.6401 34.56 73.8101 35.93C77.0601 34.06 80.2601 32.65 83.4401 31.71C86.6101 30.77 89.5701 30.3 92.3101 30.3C96.6401 30.3 100.17 31.36 102.91 33.49C105.65 35.62 107.02 38.7 107.02 42.74V71.9501H96.2001V71.94ZM96.2001 47.93C93.6001 47.93 91.4001 48.27 89.6001 48.96C87.8001 49.65 86.3201 50.51 85.1601 51.56C84.0101 52.61 83.1601 53.79 82.6201 55.13C82.0801 56.46 81.8101 57.78 81.8101 59.08C81.8101 61.1 82.3901 62.87 83.5401 64.38C84.6901 65.89 86.2801 66.65 88.3001 66.65C90.6101 66.65 92.5001 65.68 93.9801 63.73C95.4601 61.78 96.2001 59.29 96.2001 56.27V47.94V47.93Z" fill="#F5D789"/>
<path d="M126.49 16.8801V30.8401H134.06V35.1701L126.49 31.3801V61.5601C126.49 66.9001 129.74 69.5701 136.23 69.5701C135 70.5101 133.56 71.2301 131.9 71.7301C130.24 72.2301 128.47 72.4901 126.6 72.4901C123.14 72.4901 120.45 71.5401 118.54 69.6201C116.63 67.7101 115.67 64.9901 115.67 61.4501V22.2901C115.67 18.6901 117.47 16.8801 121.08 16.8801H126.49Z" fill="#EF83B3"/>
<path d="M189.45 39.7C190.46 36.82 192.15 34.53 194.53 32.83C196.91 31.14 199.43 30.29 202.1 30.29C204.62 30.29 206.48 30.98 207.67 32.35C208.86 33.72 209.46 35.23 209.46 36.89C209.46 38.4 208.96 39.79 207.94 41.05C206.93 42.31 205.42 42.94 203.4 42.94C201.52 42.94 200.08 42.38 199.07 41.26C198.06 40.14 197.56 38.9 197.56 37.53C197.56 35.87 198.21 34.5 199.51 33.42C196.7 32.77 194.32 33.6 192.37 35.91C190.42 38.22 189.45 41.47 189.45 45.65V71.94H178.63V30.83H184.04C187.65 30.83 189.45 32.06 189.45 34.51V39.7Z" fill="#0085A7"/>
<path d="M224.72 41.11C226.24 37.58 228.24 34.89 230.72 33.05C233.21 31.21 236.08 30.29 239.32 30.29C243 30.29 245.92 31.42 248.08 33.7C250.25 35.97 251.33 38.98 251.33 42.73V71.94H240.51V41.76C240.51 39.67 239.97 37.99 238.89 36.73C237.81 35.47 236.37 34.84 234.56 34.84C232.75 34.84 230.86 35.49 229.1 36.79C227.33 38.09 225.87 39.86 224.72 42.09V71.95H213.9V30.84H219.31C222.92 30.84 224.72 32.64 224.72 36.25V41.12V41.11Z" fill="#EF83B3"/>
<path d="M259.45 18.29C259.45 16.56 259.99 15.15 261.07 14.07C262.15 12.99 263.59 12.45 265.4 12.45C267.21 12.45 268.65 12.99 269.73 14.07C270.81 15.15 271.35 16.56 271.35 18.29C271.35 20.02 270.81 21.54 269.73 22.62C268.65 23.7 267.21 24.24 265.4 24.24C263.59 24.24 262.16 23.7 261.07 22.62C259.99 21.54 259.45 20.1 259.45 18.29ZM270.81 71.95H259.99V30.84H265.4C269.01 30.84 270.81 32.64 270.81 36.25V71.95Z" fill="#F7D68C"/>
<path d="M161.22 31.7C159.41 31.7 157.74 32.19 156.19 33.16C154.64 34.13 153.27 35.49 152.08 37.22C150.89 38.95 149.95 41.06 149.27 43.55C148.59 46.04 148.24 48.8 148.24 51.82C148.24 57.16 149.3 61.38 151.43 64.48C153.56 67.58 156.5 69.13 160.25 69.13C164 69.13 167.64 67.55 171.39 64.37C169.94 66.97 167.96 68.97 165.44 70.37C162.92 71.78 159.92 72.48 156.46 72.48C150.62 72.48 145.97 70.59 142.5 66.8C139.04 63.02 137.31 57.91 137.31 51.49C137.31 48.32 137.76 45.41 138.66 42.78C139.56 40.15 140.88 37.91 142.61 36.07C144.34 34.23 146.43 32.81 148.88 31.8C151.33 30.79 154.07 30.28 157.1 30.28C159.62 30.28 161.82 30.62 163.7 31.31C165.57 32 167.13 32.88 168.35 33.96C169.58 35.04 170.5 36.29 171.11 37.69C171.72 39.1 172.03 40.52 172.03 41.96C172.03 43.4 171.72 44.81 171.11 46.18C170.5 47.55 169.59 48.78 168.4 49.86C167.21 50.94 165.73 51.83 163.97 52.51C162.2 53.19 160.16 53.54 157.86 53.54C155.12 53.54 152.2 53.07 149.1 52.13C151.69 51.99 154.06 51.37 156.19 50.29C158.32 49.21 160.14 47.89 161.65 46.34C163.17 44.79 164.34 43.13 165.17 41.36C166 39.59 166.42 37.99 166.42 36.55C166.42 35.11 166 33.94 165.17 33.03C164.34 32.13 163.02 31.68 161.22 31.68V31.7Z" fill="#4CBCC1"/>
<path d="M5.70001 78.2999C5.05001 78.2999 4.46001 78.3999 3.95001 78.5899C3.44001 78.7899 3.00001 79.0599 2.64001 79.4299C2.28001 79.7999 2.00006 80.2399 1.81006 80.7699C1.62006 81.2999 1.52002 81.8899 1.52002 82.5599C1.52002 83.2299 1.62006 83.8299 1.81006 84.3599C2.00006 84.8899 2.28001 85.3399 2.64001 85.7199C3.00001 86.0999 3.44001 86.3799 3.95001 86.5799C4.46001 86.7799 5.03005 86.8799 5.68005 86.8799C5.31005 86.9799 4.90005 87.0299 4.43005 87.0299C3.77005 87.0299 3.16006 86.9199 2.62006 86.7099C2.07006 86.4999 1.61003 86.1899 1.22003 85.7999C0.830032 85.4099 0.530007 84.9399 0.320007 84.3899C0.110007 83.8399 0 83.2299 0 82.5599C0 81.8899 0.100059 81.2799 0.310059 80.7399C0.520059 80.1999 0.820012 79.7399 1.20001 79.3499C1.59001 78.9599 2.05004 78.6699 2.60004 78.4599C3.15004 78.2499 3.75005 78.1499 4.43005 78.1499C4.92005 78.1499 5.35002 78.1999 5.71002 78.2999H5.70001Z" fill="#0085A7"/>
<path d="M8.13989 82.3898C8.27989 81.9798 8.51992 81.6598 8.85992 81.4198C9.19992 81.1798 9.54993 81.0598 9.92993 81.0598C10.2899 81.0598 10.5499 81.1598 10.7199 81.3498C10.8899 81.5398 10.9699 81.7598 10.9699 81.9898C10.9699 82.1998 10.8999 82.3998 10.7599 82.5798C10.6199 82.7598 10.3999 82.8498 10.1199 82.8498C9.84993 82.8498 9.64989 82.7698 9.50989 82.6098C9.36989 82.4498 9.29993 82.2798 9.29993 82.0798C9.29993 81.8498 9.38989 81.6498 9.5799 81.4998C9.17989 81.4098 8.84989 81.5298 8.56989 81.8498C8.28989 82.1698 8.15991 82.6398 8.15991 83.2298V86.9398H6.62988V81.1398H7.38989C7.89989 81.1398 8.1499 81.3098 8.1499 81.6598V82.3898H8.13989Z" fill="#0085A7"/>
<path d="M14.67 81.2598C14.42 81.2598 14.18 81.3298 13.96 81.4698C13.74 81.6098 13.55 81.7998 13.38 82.0398C13.21 82.2798 13.08 82.5798 12.98 82.9298C12.88 83.2798 12.83 83.6698 12.83 84.0998C12.83 84.8498 12.98 85.4498 13.28 85.8898C13.58 86.3298 14 86.5498 14.52 86.5498C15.04 86.5498 15.56 86.3298 16.09 85.8798C15.89 86.2498 15.61 86.5298 15.25 86.7298C14.89 86.9298 14.47 87.0298 13.98 87.0298C13.16 87.0298 12.5 86.7598 12.01 86.2298C11.52 85.6898 11.28 84.9798 11.28 84.0698C11.28 83.6198 11.34 83.2098 11.47 82.8398C11.6 82.4698 11.78 82.1498 12.03 81.8898C12.27 81.6298 12.57 81.4298 12.92 81.2898C13.27 81.1498 13.65 81.0798 14.08 81.0798C14.44 81.0798 14.75 81.1298 15.01 81.2298C15.28 81.3298 15.49 81.4498 15.67 81.5998C15.84 81.7498 15.9701 81.9298 16.0601 82.1298C16.1501 82.3298 16.19 82.5298 16.19 82.7298C16.19 82.9298 16.1501 83.1298 16.0601 83.3298C15.9701 83.5198 15.8501 83.6998 15.6801 83.8498C15.5101 83.9998 15.3 84.1298 15.05 84.2298C14.8 84.3298 14.51 84.3698 14.19 84.3698C13.8 84.3698 13.39 84.2998 12.95 84.1698C13.32 84.1498 13.65 84.0598 13.95 83.9098C14.25 83.7598 14.51 83.5698 14.72 83.3498C14.93 83.1298 15.1 82.8998 15.22 82.6498C15.34 82.3998 15.4 82.1698 15.4 81.9698C15.4 81.7698 15.34 81.5998 15.22 81.4698C15.1 81.3398 14.92 81.2798 14.66 81.2798L14.67 81.2598Z" fill="#0085A7"/>
<path d="M20.1002 86.9398V85.2898C20.0002 85.7998 19.7601 86.2098 19.3901 86.5298C19.0201 86.8498 18.5801 87.0098 18.0801 87.0098C17.6501 87.0098 17.3102 86.8898 17.0502 86.6398C16.7902 86.3998 16.6602 86.0598 16.6602 85.6298C16.6602 85.2998 16.7401 85.0098 16.9001 84.7398C17.0601 84.4698 17.2902 84.2398 17.6002 84.0398C17.9002 83.8498 18.2602 83.6998 18.6802 83.5998C19.1002 83.4998 19.5701 83.4498 20.0901 83.4498V83.0098C20.0901 82.5198 19.9801 82.1598 19.7501 81.9198C19.5301 81.6798 19.1602 81.5598 18.6702 81.5598C18.1802 81.5598 17.6102 81.6598 16.9302 81.8498C17.3902 81.5898 17.8402 81.3898 18.2902 81.2498C18.7402 81.1198 19.1602 81.0498 19.5402 81.0498C20.1502 81.0498 20.6502 81.1998 21.0402 81.4998C21.4302 81.7998 21.6202 82.2398 21.6202 82.8098V86.9298H20.0901L20.1002 86.9398ZM20.1002 83.5498C19.7302 83.5498 19.4202 83.5998 19.1702 83.6998C18.9202 83.7998 18.7102 83.9198 18.5402 84.0698C18.3802 84.2198 18.2602 84.3898 18.1802 84.5798C18.1002 84.7698 18.0701 84.9498 18.0701 85.1398C18.0701 85.4298 18.1502 85.6798 18.3102 85.8898C18.4702 86.0998 18.7002 86.2098 18.9802 86.2098C19.3102 86.2098 19.5702 86.0698 19.7802 85.7998C19.9902 85.5298 20.0901 85.1798 20.0901 84.7498V83.5698L20.1002 83.5498Z" fill="#0085A7"/>
<path d="M24.3801 82.5898C24.5901 82.0898 24.8801 81.7098 25.2301 81.4498C25.5801 81.1898 25.9901 81.0598 26.4401 81.0598C26.9601 81.0598 27.3701 81.2198 27.6801 81.5398C27.9901 81.8598 28.1401 82.2898 28.1401 82.8198V86.9398H26.6101V82.6798C26.6101 82.3798 26.5301 82.1498 26.3801 81.9698C26.2301 81.7898 26.0201 81.6998 25.7701 81.6998C25.5201 81.6998 25.2501 81.7898 25.0001 81.9798C24.7501 82.1698 24.5401 82.4098 24.3801 82.7298V86.9498H22.8501V81.1498H23.6101C24.1201 81.1498 24.3701 81.3998 24.3701 81.9098V82.5998L24.3801 82.5898Z" fill="#0085A7"/>
<path d="M33.7 78.24C34.21 78.24 34.46 78.49 34.46 79V86.94H33.7C33.19 86.94 32.94 86.68 32.94 86.18V86.01C32.64 86.37 32.36 86.62 32.08 86.78C31.81 86.94 31.5 87.02 31.16 87.02C30.52 87.02 30.0101 86.76 29.6201 86.24C29.2401 85.72 29.05 85.01 29.05 84.1C29.05 83.6 29.11 83.16 29.23 82.79C29.35 82.41 29.51 82.1 29.72 81.84C29.93 81.59 30.17 81.39 30.45 81.26C30.73 81.13 31.03 81.06 31.36 81.06C31.75 81.06 32.08 81.16 32.35 81.35C32.63 81.54 32.8201 81.85 32.9301 82.28V78.23H33.69L33.7 78.24ZM31.82 81.46C31.44 81.46 31.14 81.67 30.92 82.09C30.7 82.51 30.58 83.14 30.58 83.96C30.58 84.78 30.69 85.46 30.92 85.88C31.15 86.31 31.44 86.52 31.8 86.52C32.16 86.52 32.5301 86.31 32.9301 85.91V82.99C32.9301 82.5 32.82 82.12 32.6 81.85C32.38 81.58 32.1201 81.45 31.8101 81.45L31.82 81.46Z" fill="#0085A7"/>
<path d="M35.3799 84.0398C35.3799 83.5898 35.4499 83.1798 35.5799 82.8198C35.7099 82.4598 35.8999 82.1398 36.1499 81.8798C36.3999 81.6198 36.6999 81.4198 37.0399 81.2798C37.3899 81.1398 37.7699 81.0698 38.1999 81.0698C38.6299 81.0698 39.0099 81.1398 39.3599 81.2798C39.7099 81.4198 39.9999 81.6198 40.2499 81.8798C40.4999 82.1398 40.6899 82.4498 40.8199 82.8198C40.9499 83.1898 41.0199 83.5898 41.0199 84.0398C41.0199 84.4898 40.9499 84.8998 40.8199 85.2598C40.6899 85.6298 40.4999 85.9398 40.2499 86.1998C39.9999 86.4598 39.6999 86.6598 39.3599 86.7998C39.0099 86.9398 38.6299 87.0098 38.1999 87.0098C37.7699 87.0098 37.3899 86.9398 37.0399 86.7998C36.6899 86.6598 36.3999 86.4598 36.1499 86.1998C35.8999 85.9398 35.7099 85.6298 35.5799 85.2598C35.4499 84.8898 35.3799 84.4898 35.3799 84.0398ZM36.9199 84.0398C36.9199 84.9198 37.0399 85.6198 37.2699 86.1498C37.4999 86.6798 37.8099 86.9398 38.1999 86.9398C38.5899 86.9398 38.8999 86.6698 39.1299 86.1498C39.3599 85.6198 39.4799 84.9198 39.4799 84.0398C39.4799 83.1598 39.3599 82.4598 39.1299 81.9298C38.8999 81.3998 38.5799 81.1398 38.1999 81.1398C37.8199 81.1398 37.4999 81.3998 37.2699 81.9298C37.0399 82.4598 36.9199 83.1598 36.9199 84.0398Z" fill="#0085A7"/>
<path d="M46.84 86.94H45.3101V78.23H46.07C46.58 78.23 46.83 78.48 46.83 78.99V86.93L46.84 86.94Z" fill="#0085A7"/>
<path d="M51.19 86.9398V85.2898C51.09 85.7998 50.85 86.2098 50.48 86.5298C50.11 86.8498 49.67 87.0098 49.17 87.0098C48.74 87.0098 48.4 86.8898 48.14 86.6398C47.88 86.3998 47.75 86.0598 47.75 85.6298C47.75 85.2998 47.8301 85.0098 47.9901 84.7398C48.1501 84.4698 48.38 84.2398 48.69 84.0398C48.99 83.8498 49.35 83.6998 49.77 83.5998C50.19 83.4998 50.6601 83.4498 51.1801 83.4498V83.0098C51.1801 82.5198 51.07 82.1598 50.84 81.9198C50.62 81.6798 50.25 81.5598 49.75 81.5598C49.25 81.5598 48.69 81.6598 48.01 81.8498C48.47 81.5898 48.9201 81.3898 49.3701 81.2498C49.8201 81.1198 50.2401 81.0498 50.6201 81.0498C51.2301 81.0498 51.7301 81.1998 52.1201 81.4998C52.5101 81.7998 52.7 82.2398 52.7 82.8098V86.9298H51.17L51.19 86.9398ZM51.19 83.5498C50.82 83.5498 50.51 83.5998 50.26 83.6998C50.01 83.7998 49.8 83.9198 49.63 84.0698C49.47 84.2198 49.35 84.3898 49.27 84.5798C49.19 84.7698 49.16 84.9498 49.16 85.1398C49.16 85.4298 49.24 85.6798 49.4 85.8898C49.56 86.0998 49.79 86.2098 50.07 86.2098C50.4 86.2098 50.6601 86.0698 50.8701 85.7998C51.0801 85.5298 51.1801 85.1798 51.1801 84.7498V83.5698L51.19 83.5498Z" fill="#0085A7"/>
<path d="M53.6401 81.7499V81.1399H58.9601L55.4601 86.8499L58.9601 86.3299V86.9399H53.6401L57.1401 81.2299L53.6401 81.7499Z" fill="#0085A7"/>
<path d="M59.1001 84.0398C59.1001 83.5898 59.1701 83.1798 59.3001 82.8198C59.4301 82.4498 59.6201 82.1398 59.8701 81.8798C60.1201 81.6198 60.4201 81.4198 60.7601 81.2798C61.1101 81.1398 61.4901 81.0698 61.9201 81.0698C62.3501 81.0698 62.7301 81.1398 63.0801 81.2798C63.4301 81.4198 63.7201 81.6198 63.9701 81.8798C64.2201 82.1398 64.4101 82.4498 64.5401 82.8198C64.6701 83.1898 64.7401 83.5898 64.7401 84.0398C64.7401 84.4898 64.6701 84.8998 64.5401 85.2598C64.4101 85.6298 64.2201 85.9398 63.9701 86.1998C63.7201 86.4598 63.4201 86.6598 63.0801 86.7998C62.7301 86.9398 62.3501 87.0098 61.9201 87.0098C61.4901 87.0098 61.1101 86.9398 60.7601 86.7998C60.4101 86.6598 60.1201 86.4598 59.8701 86.1998C59.6201 85.9398 59.4301 85.6298 59.3001 85.2598C59.1701 84.8898 59.1001 84.4898 59.1001 84.0398ZM60.6401 84.0398C60.6401 84.9198 60.7601 85.6198 60.9901 86.1498C61.2201 86.6798 61.5401 86.9398 61.9201 86.9398C62.3001 86.9398 62.6201 86.6698 62.8501 86.1498C63.0801 85.6298 63.2001 84.9198 63.2001 84.0398C63.2001 83.1598 63.0801 82.4598 62.8501 81.9298C62.6201 81.3998 62.3101 81.1398 61.9201 81.1398C61.5301 81.1398 61.2201 81.3998 60.9901 81.9298C60.7601 82.4598 60.6401 83.1598 60.6401 84.0398Z" fill="#0085A7"/>
<path d="M67.9 85.7798C67.9 85.5898 67.84 85.4098 67.72 85.2398C67.6 85.0698 67.45 84.9098 67.26 84.7498C67.08 84.5898 66.88 84.4398 66.66 84.2798C66.44 84.1198 66.2401 83.9498 66.0601 83.7698C65.8801 83.5898 65.72 83.3898 65.6 83.1798C65.48 82.9698 65.42 82.7298 65.42 82.4698C65.42 82.0398 65.59 81.6998 65.92 81.4498C66.26 81.1998 66.69 81.0698 67.23 81.0698C67.7 81.0698 68.1 81.1598 68.42 81.3498C68.75 81.5298 69.01 81.7598 69.21 82.0198C69 81.8598 68.75 81.7298 68.48 81.6498C68.21 81.5698 67.95 81.5298 67.69 81.5298C67.42 81.5298 67.18 81.5898 66.98 81.6998C66.78 81.8098 66.6801 81.9898 66.6801 82.2198C66.6801 82.3998 66.7401 82.5698 66.8701 82.7198C67.0001 82.8698 67.16 83.0098 67.35 83.1398C67.54 83.2698 67.75 83.4098 67.98 83.5498C68.21 83.6898 68.42 83.8398 68.61 84.0098C68.8 84.1798 68.96 84.3698 69.09 84.5898C69.22 84.8098 69.28 85.0598 69.28 85.3598C69.28 85.8598 69.09 86.2598 68.72 86.5698C68.35 86.8798 67.86 87.0398 67.25 87.0398C66.72 87.0398 66.26 86.9298 65.88 86.6998C65.5 86.4798 65.22 86.2098 65.03 85.9098C65.24 86.1198 65.51 86.2898 65.83 86.3998C66.15 86.5098 66.46 86.5698 66.75 86.5698C67.04 86.5698 67.32 86.5098 67.54 86.3898C67.76 86.2698 67.8701 86.0698 67.8701 85.8098L67.9 85.7798Z" fill="#0085A7"/>
<path d="M77.92 78.24C78.43 78.24 78.6801 78.49 78.6801 79V86.94H77.92C77.41 86.94 77.16 86.68 77.16 86.18V86.01C76.86 86.37 76.58 86.62 76.3 86.78C76.03 86.94 75.72 87.02 75.38 87.02C74.74 87.02 74.23 86.76 73.84 86.24C73.46 85.72 73.27 85.01 73.27 84.1C73.27 83.6 73.33 83.16 73.45 82.79C73.57 82.41 73.73 82.1 73.94 81.84C74.15 81.59 74.39 81.39 74.67 81.26C74.95 81.13 75.25 81.06 75.58 81.06C75.97 81.06 76.3 81.16 76.57 81.35C76.85 81.54 77.04 81.85 77.15 82.28V78.23H77.91L77.92 78.24ZM76.04 81.46C75.66 81.46 75.36 81.67 75.14 82.09C74.92 82.51 74.8 83.14 74.8 83.96C74.8 84.78 74.91 85.46 75.14 85.88C75.37 86.31 75.66 86.52 76.02 86.52C76.38 86.52 76.75 86.31 77.15 85.91V82.99C77.15 82.5 77.04 82.12 76.82 81.85C76.6 81.58 76.34 81.45 76.03 81.45L76.04 81.46Z" fill="#0085A7"/>
<path d="M82.9801 81.2598C82.7301 81.2598 82.4901 81.3298 82.2701 81.4698C82.0501 81.6098 81.8601 81.7998 81.6901 82.0398C81.5201 82.2798 81.3901 82.5798 81.2901 82.9298C81.1901 83.2798 81.1501 83.6698 81.1501 84.0998C81.1501 84.8498 81.3001 85.4498 81.6001 85.8898C81.9001 86.3298 82.3201 86.5498 82.8401 86.5498C83.3601 86.5498 83.8801 86.3298 84.4101 85.8798C84.2101 86.2498 83.9301 86.5298 83.5701 86.7298C83.2101 86.9298 82.7901 87.0298 82.3001 87.0298C81.4801 87.0298 80.8201 86.7598 80.3301 86.2298C79.8401 85.6898 79.6001 84.9798 79.6001 84.0698C79.6001 83.6198 79.6601 83.2098 79.7901 82.8398C79.9201 82.4698 80.1001 82.1498 80.3501 81.8898C80.5901 81.6298 80.8901 81.4298 81.2401 81.2898C81.5901 81.1498 81.9701 81.0798 82.4001 81.0798C82.7601 81.0798 83.0701 81.1298 83.3301 81.2298C83.6001 81.3298 83.8101 81.4498 83.9901 81.5998C84.1601 81.7498 84.2901 81.9298 84.3801 82.1298C84.4701 82.3298 84.5101 82.5298 84.5101 82.7298C84.5101 82.9298 84.4701 83.1298 84.3801 83.3298C84.2901 83.5198 84.1701 83.6998 84.0001 83.8498C83.8301 83.9998 83.6201 84.1298 83.3701 84.2298C83.1201 84.3298 82.8301 84.3698 82.5101 84.3698C82.1201 84.3698 81.7101 84.2998 81.2701 84.1698C81.6401 84.1498 81.9701 84.0598 82.2701 83.9098C82.5701 83.7598 82.8301 83.5698 83.0401 83.3498C83.2501 83.1298 83.4201 82.8998 83.5401 82.6498C83.6601 82.3998 83.7201 82.1698 83.7201 81.9698C83.7201 81.7698 83.6601 81.5998 83.5401 81.4698C83.4201 81.3398 83.2401 81.2798 82.9801 81.2798V81.2598Z" fill="#0085A7"/>
<path d="M91.69 81.5298C91.17 81.5298 90.77 81.7498 90.48 82.1898C90.19 82.6298 90.05 83.2398 90.05 84.0198C90.05 84.7998 90.2 85.4298 90.5 85.8798C90.8 86.3198 91.2201 86.5398 91.7401 86.5398C92.2601 86.5398 92.7801 86.3198 93.3101 85.8698C93.1101 86.2398 92.83 86.5198 92.47 86.7198C92.11 86.9198 91.69 87.0198 91.2 87.0198C90.38 87.0198 89.72 86.7498 89.23 86.2198C88.74 85.6798 88.5 84.9698 88.5 84.0598C88.5 83.6098 88.56 83.1998 88.69 82.8298C88.82 82.4598 89 82.1398 89.23 81.8798C89.46 81.6198 89.74 81.4198 90.07 81.2798C90.4 81.1398 90.76 81.0698 91.15 81.0698C91.64 81.0698 92.06 81.1798 92.41 81.3898C92.76 81.5998 93.03 81.8998 93.23 82.2898C93.02 82.0598 92.77 81.8698 92.5 81.7398C92.23 81.6098 91.9601 81.5398 91.6801 81.5398L91.69 81.5298Z" fill="#0085A7"/>
<path d="M93.6101 84.0398C93.6101 83.5898 93.6801 83.1798 93.8101 82.8198C93.9401 82.4498 94.1301 82.1398 94.3801 81.8798C94.6301 81.6198 94.9301 81.4198 95.2701 81.2798C95.6201 81.1398 96.0001 81.0698 96.4301 81.0698C96.8601 81.0698 97.2401 81.1398 97.5901 81.2798C97.9401 81.4198 98.2301 81.6198 98.4801 81.8798C98.7301 82.1398 98.9201 82.4498 99.0501 82.8198C99.1801 83.1898 99.2501 83.5898 99.2501 84.0398C99.2501 84.4898 99.1801 84.8998 99.0501 85.2598C98.9201 85.6298 98.7301 85.9398 98.4801 86.1998C98.2301 86.4598 97.9301 86.6598 97.5901 86.7998C97.2401 86.9398 96.8601 87.0098 96.4301 87.0098C96.0001 87.0098 95.6201 86.9398 95.2701 86.7998C94.9201 86.6598 94.6301 86.4598 94.3801 86.1998C94.1301 85.9398 93.9401 85.6298 93.8101 85.2598C93.6801 84.8898 93.6101 84.4898 93.6101 84.0398ZM95.1501 84.0398C95.1501 84.9198 95.2701 85.6198 95.5001 86.1498C95.7301 86.6798 96.0401 86.9398 96.4301 86.9398C96.8201 86.9398 97.1301 86.6698 97.3601 86.1498C97.5901 85.6298 97.7101 84.9198 97.7101 84.0398C97.7101 83.1598 97.5901 82.4598 97.3601 81.9298C97.1301 81.3998 96.8201 81.1398 96.4301 81.1398C96.0401 81.1398 95.7301 81.3998 95.5001 81.9298C95.2701 82.4598 95.1501 83.1598 95.1501 84.0398Z" fill="#0085A7"/>
<path d="M101.71 82.5898C101.92 82.0898 102.21 81.7098 102.56 81.4498C102.91 81.1898 103.32 81.0598 103.77 81.0598C104.29 81.0598 104.7 81.2198 105.01 81.5398C105.32 81.8598 105.47 82.2898 105.47 82.8198V86.9398H103.94V82.6798C103.94 82.3798 103.86 82.1498 103.71 81.9698C103.56 81.7898 103.35 81.6998 103.1 81.6998C102.85 81.6998 102.58 81.7898 102.33 81.9798C102.08 82.1698 101.87 82.4098 101.71 82.7298V86.9498H100.18V81.1498H100.94C101.45 81.1498 101.7 81.3998 101.7 81.9098V82.5998L101.71 82.5898Z" fill="#0085A7"/>
<path d="M106.69 80.0799C106.69 79.7399 106.73 79.4499 106.82 79.2099C106.91 78.9699 107.02 78.7699 107.17 78.6099C107.32 78.4599 107.48 78.3399 107.67 78.2699C107.85 78.1899 108.04 78.1499 108.22 78.1499C108.51 78.1499 108.77 78.2299 109.01 78.3799C109.25 78.5299 109.42 78.7599 109.51 79.0499C109.32 78.9199 109.12 78.8499 108.93 78.8499C108.72 78.8499 108.54 78.9399 108.41 79.1299C108.28 79.3199 108.21 79.5899 108.21 79.9499V81.1299H110.47C110.98 81.1299 111.23 81.3799 111.23 81.8899V86.9299H109.7V81.7299L108.2 81.1999V86.9299H106.67V80.0699L106.69 80.0799ZM109.64 79.0599C109.64 78.8199 109.72 78.6199 109.87 78.4599C110.02 78.3099 110.23 78.2299 110.48 78.2299C110.73 78.2299 110.94 78.3099 111.09 78.4599C111.24 78.6099 111.32 78.8099 111.32 79.0599C111.32 79.3099 111.24 79.5199 111.09 79.6699C110.94 79.8199 110.73 79.8999 110.48 79.8999C110.23 79.8999 110.02 79.8199 109.87 79.6699C109.72 79.5199 109.64 79.3099 109.64 79.0599Z" fill="#0085A7"/>
<path d="M115.59 86.9398V85.2898C115.49 85.7998 115.25 86.2098 114.88 86.5298C114.51 86.8498 114.07 87.0098 113.57 87.0098C113.14 87.0098 112.8 86.8898 112.54 86.6398C112.28 86.3998 112.15 86.0598 112.15 85.6298C112.15 85.2998 112.23 85.0098 112.39 84.7398C112.55 84.4698 112.78 84.2398 113.09 84.0398C113.39 83.8498 113.75 83.6998 114.17 83.5998C114.59 83.4998 115.06 83.4498 115.58 83.4498V83.0098C115.58 82.5198 115.47 82.1598 115.24 81.9198C115.02 81.6798 114.65 81.5598 114.16 81.5598C113.67 81.5598 113.1 81.6598 112.42 81.8498C112.88 81.5898 113.33 81.3898 113.78 81.2498C114.23 81.1198 114.65 81.0498 115.03 81.0498C115.64 81.0498 116.14 81.1998 116.53 81.4998C116.92 81.7998 117.11 82.2398 117.11 82.8098V86.9298H115.58L115.59 86.9398ZM115.59 83.5498C115.22 83.5498 114.91 83.5998 114.66 83.6998C114.41 83.7998 114.2 83.9198 114.03 84.0698C113.87 84.2198 113.75 84.3898 113.67 84.5798C113.59 84.7698 113.56 84.9498 113.56 85.1398C113.56 85.4298 113.64 85.6798 113.8 85.8898C113.96 86.0998 114.19 86.2098 114.47 86.2098C114.8 86.2098 115.06 86.0698 115.27 85.7998C115.48 85.5298 115.58 85.1798 115.58 84.7498V83.5698L115.59 83.5498Z" fill="#0085A7"/>
<path d="M119.87 82.5898C120.08 82.0898 120.37 81.7098 120.72 81.4498C121.07 81.1898 121.48 81.0598 121.93 81.0598C122.45 81.0598 122.86 81.2198 123.17 81.5398C123.48 81.8598 123.63 82.2898 123.63 82.8198V86.9398H122.1V82.6798C122.1 82.3798 122.02 82.1498 121.87 81.9698C121.72 81.7898 121.51 81.6998 121.26 81.6998C121.01 81.6998 120.74 81.7898 120.49 81.9798C120.24 82.1698 120.03 82.4098 119.87 82.7298V86.9498H118.34V81.1498H119.1C119.61 81.1498 119.86 81.3998 119.86 81.9098V82.5998L119.87 82.5898Z" fill="#0085A7"/>
<path d="M124.55 81.7499V81.1399H129.87L126.37 86.8499L129.87 86.3299V86.9399H124.55L128.05 81.2299L124.55 81.7499Z" fill="#0085A7"/>
<path d="M133.76 86.9398V85.2898C133.66 85.7998 133.42 86.2098 133.05 86.5298C132.68 86.8498 132.24 87.0098 131.74 87.0098C131.31 87.0098 130.97 86.8898 130.71 86.6398C130.45 86.3998 130.32 86.0598 130.32 85.6298C130.32 85.2998 130.4 85.0098 130.56 84.7398C130.72 84.4698 130.95 84.2398 131.26 84.0398C131.56 83.8498 131.92 83.6998 132.34 83.5998C132.76 83.4998 133.23 83.4498 133.75 83.4498V83.0098C133.75 82.5198 133.64 82.1598 133.41 81.9198C133.19 81.6798 132.82 81.5598 132.33 81.5598C131.84 81.5598 131.27 81.6598 130.59 81.8498C131.05 81.5898 131.5 81.3898 131.95 81.2498C132.4 81.1198 132.82 81.0498 133.2 81.0498C133.81 81.0498 134.31 81.1998 134.7 81.4998C135.09 81.7998 135.28 82.2398 135.28 82.8098V86.9298H133.75L133.76 86.9398ZM133.76 83.5498C133.39 83.5498 133.08 83.5998 132.83 83.6998C132.58 83.7998 132.37 83.9198 132.2 84.0698C132.04 84.2198 131.92 84.3898 131.84 84.5798C131.76 84.7698 131.73 84.9498 131.73 85.1398C131.73 85.4298 131.81 85.6798 131.97 85.8898C132.13 86.0998 132.36 86.2098 132.64 86.2098C132.97 86.2098 133.23 86.0698 133.44 85.7998C133.65 85.5298 133.75 85.1798 133.75 84.7498V83.5698L133.76 83.5498Z" fill="#0085A7"/>
<path d="M139.56 89.7999L142.16 86.9899L139.56 81.1399H141.26L142.96 85.1399L144.11 81.1399H144.81L141.36 89.0999C141.17 89.5699 140.81 89.7999 140.29 89.7999H139.57H139.56Z" fill="#0085A7"/>
<path d="M150.61 82.07C150.91 81.71 151.19 81.46 151.47 81.3C151.75 81.14 152.05 81.06 152.39 81.06C153.03 81.06 153.54 81.32 153.93 81.84C154.31 82.36 154.5 83.07 154.5 83.98C154.5 84.48 154.44 84.92 154.32 85.29C154.2 85.67 154.04 85.98 153.83 86.24C153.62 86.49 153.38 86.69 153.1 86.82C152.82 86.95 152.52 87.02 152.19 87.02C151.8 87.02 151.47 86.92 151.2 86.73C150.93 86.54 150.73 86.23 150.62 85.8V86.18C150.62 86.69 150.37 86.94 149.86 86.94H149.1V78.23H149.86C150.37 78.23 150.62 78.48 150.62 78.99V82.06L150.61 82.07ZM151.73 86.62C152.11 86.62 152.41 86.41 152.63 85.99C152.85 85.57 152.97 84.94 152.97 84.12C152.97 83.3 152.86 82.62 152.63 82.19C152.4 81.76 152.11 81.55 151.75 81.55C151.39 81.55 151.02 81.75 150.62 82.16V85.08C150.62 85.57 150.73 85.95 150.95 86.22C151.17 86.49 151.43 86.62 151.74 86.62H151.73Z" fill="#0085A7"/>
<path d="M155.33 79.3598C155.33 79.1198 155.41 78.9198 155.56 78.7598C155.71 78.6098 155.92 78.5298 156.17 78.5298C156.42 78.5298 156.63 78.6098 156.78 78.7598C156.93 78.9098 157.01 79.1098 157.01 79.3598C157.01 79.6098 156.93 79.8198 156.78 79.9698C156.63 80.1198 156.42 80.1998 156.17 80.1998C155.92 80.1998 155.71 80.1198 155.56 79.9698C155.41 79.8198 155.33 79.6098 155.33 79.3598ZM156.93 86.9398H155.4V81.1398H156.16C156.67 81.1398 156.92 81.3898 156.92 81.8998V86.9398H156.93Z" fill="#0085A7"/>
<path d="M161.22 81.2598C160.97 81.2598 160.73 81.3298 160.51 81.4698C160.29 81.6098 160.1 81.7998 159.93 82.0398C159.76 82.2798 159.63 82.5798 159.53 82.9298C159.43 83.2798 159.39 83.6698 159.39 84.0998C159.39 84.8498 159.54 85.4498 159.84 85.8898C160.14 86.3298 160.56 86.5498 161.08 86.5498C161.6 86.5498 162.12 86.3298 162.65 85.8798C162.45 86.2498 162.17 86.5298 161.81 86.7298C161.45 86.9298 161.03 87.0298 160.54 87.0298C159.72 87.0298 159.06 86.7598 158.57 86.2298C158.08 85.6898 157.84 84.9798 157.84 84.0698C157.84 83.6198 157.9 83.2098 158.03 82.8398C158.16 82.4698 158.34 82.1498 158.59 81.8898C158.83 81.6298 159.13 81.4298 159.48 81.2898C159.83 81.1498 160.21 81.0798 160.64 81.0798C161 81.0798 161.31 81.1298 161.57 81.2298C161.84 81.3298 162.05 81.4498 162.23 81.5998C162.4 81.7498 162.53 81.9298 162.62 82.1298C162.71 82.3298 162.75 82.5298 162.75 82.7298C162.75 82.9298 162.71 83.1298 162.62 83.3298C162.53 83.5198 162.41 83.6998 162.24 83.8498C162.07 83.9998 161.86 84.1298 161.61 84.2298C161.36 84.3298 161.07 84.3698 160.75 84.3698C160.36 84.3698 159.95 84.2998 159.51 84.1698C159.88 84.1498 160.21 84.0598 160.51 83.9098C160.81 83.7598 161.07 83.5698 161.28 83.3498C161.49 83.1298 161.66 82.8998 161.78 82.6498C161.9 82.3998 161.96 82.1698 161.96 81.9698C161.96 81.7698 161.9 81.5998 161.78 81.4698C161.66 81.3398 161.48 81.2798 161.22 81.2798V81.2598Z" fill="#0085A7"/>
<path d="M165.21 82.5898C165.42 82.0898 165.71 81.7098 166.06 81.4498C166.41 81.1898 166.82 81.0598 167.27 81.0598C167.79 81.0598 168.2 81.2198 168.51 81.5398C168.82 81.8598 168.97 82.2898 168.97 82.8198V86.9398H167.44V82.6798C167.44 82.3798 167.36 82.1498 167.21 81.9698C167.06 81.7898 166.85 81.6998 166.6 81.6998C166.35 81.6998 166.08 81.7898 165.83 81.9798C165.58 82.1698 165.37 82.4098 165.21 82.7298V86.9498H163.68V81.1498H164.44C164.95 81.1498 165.2 81.3998 165.2 81.9098V82.5998L165.21 82.5898Z" fill="#0085A7"/>
<path d="M173.26 81.2598C173.01 81.2598 172.77 81.3298 172.55 81.4698C172.33 81.6098 172.14 81.7998 171.97 82.0398C171.8 82.2798 171.67 82.5798 171.57 82.9298C171.47 83.2798 171.43 83.6698 171.43 84.0998C171.43 84.8498 171.58 85.4498 171.88 85.8898C172.18 86.3298 172.6 86.5498 173.12 86.5498C173.64 86.5498 174.16 86.3298 174.69 85.8798C174.49 86.2498 174.21 86.5298 173.85 86.7298C173.49 86.9298 173.07 87.0298 172.58 87.0298C171.76 87.0298 171.1 86.7598 170.61 86.2298C170.12 85.6898 169.88 84.9798 169.88 84.0698C169.88 83.6198 169.94 83.2098 170.07 82.8398C170.2 82.4698 170.38 82.1498 170.63 81.8898C170.87 81.6298 171.17 81.4298 171.52 81.2898C171.87 81.1498 172.25 81.0798 172.68 81.0798C173.04 81.0798 173.35 81.1298 173.61 81.2298C173.88 81.3298 174.09 81.4498 174.27 81.5998C174.44 81.7498 174.57 81.9298 174.66 82.1298C174.75 82.3298 174.79 82.5298 174.79 82.7298C174.79 82.9298 174.75 83.1298 174.66 83.3298C174.57 83.5198 174.45 83.6998 174.28 83.8498C174.11 83.9998 173.9 84.1298 173.65 84.2298C173.4 84.3298 173.11 84.3698 172.79 84.3698C172.4 84.3698 171.99 84.2998 171.55 84.1698C171.92 84.1498 172.25 84.0598 172.55 83.9098C172.85 83.7598 173.11 83.5698 173.32 83.3498C173.53 83.1298 173.7 82.8998 173.82 82.6498C173.94 82.3998 174 82.1698 174 81.9698C174 81.7698 173.94 81.5998 173.82 81.4698C173.7 81.3398 173.52 81.2798 173.26 81.2798V81.2598Z" fill="#0085A7"/>
<path d="M178.1 85.7798C178.1 85.5898 178.04 85.4098 177.92 85.2398C177.8 85.0698 177.65 84.9098 177.46 84.7498C177.28 84.5898 177.08 84.4398 176.86 84.2798C176.64 84.1198 176.44 83.9498 176.26 83.7698C176.08 83.5898 175.92 83.3898 175.8 83.1798C175.68 82.9698 175.62 82.7298 175.62 82.4698C175.62 82.0398 175.79 81.6998 176.12 81.4498C176.46 81.1998 176.89 81.0698 177.43 81.0698C177.9 81.0698 178.3 81.1598 178.62 81.3498C178.95 81.5298 179.21 81.7598 179.41 82.0198C179.2 81.8598 178.95 81.7298 178.68 81.6498C178.41 81.5698 178.15 81.5298 177.89 81.5298C177.62 81.5298 177.38 81.5898 177.18 81.6998C176.98 81.8098 176.88 81.9898 176.88 82.2198C176.88 82.3998 176.94 82.5698 177.07 82.7198C177.2 82.8698 177.36 83.0098 177.55 83.1398C177.74 83.2698 177.95 83.4098 178.18 83.5498C178.41 83.6898 178.62 83.8398 178.81 84.0098C179 84.1798 179.16 84.3698 179.29 84.5898C179.42 84.8098 179.48 85.0598 179.48 85.3598C179.48 85.8598 179.29 86.2598 178.92 86.5698C178.55 86.8798 178.06 87.0398 177.45 87.0398C176.92 87.0398 176.46 86.9298 176.08 86.6998C175.7 86.4798 175.42 86.2098 175.23 85.9098C175.44 86.1198 175.71 86.2898 176.03 86.3998C176.35 86.5098 176.66 86.5698 176.95 86.5698C177.24 86.5698 177.52 86.5098 177.74 86.3898C177.96 86.2698 178.07 86.0698 178.07 85.8098L178.1 85.7798Z" fill="#0085A7"/>
<path d="M181.95 79.1699V81.1399H183.02V81.7499L181.95 81.2199V85.4799C181.95 86.2299 182.41 86.6099 183.32 86.6099C183.15 86.7399 182.94 86.8399 182.71 86.9099C182.48 86.9799 182.23 87.0199 181.96 87.0199C181.47 87.0199 181.09 86.8899 180.82 86.6199C180.55 86.3499 180.41 85.9699 180.41 85.4699V79.9399C180.41 79.4299 180.66 79.1799 181.17 79.1799H181.93L181.95 79.1699Z" fill="#0085A7"/>
<path d="M187.07 86.9398V85.2898C186.97 85.7998 186.73 86.2098 186.36 86.5298C185.99 86.8498 185.55 87.0098 185.05 87.0098C184.62 87.0098 184.28 86.8898 184.02 86.6398C183.76 86.3998 183.63 86.0598 183.63 85.6298C183.63 85.2998 183.71 85.0098 183.87 84.7398C184.03 84.4698 184.26 84.2398 184.57 84.0398C184.87 83.8498 185.23 83.6998 185.65 83.5998C186.07 83.4998 186.54 83.4498 187.06 83.4498V83.0098C187.06 82.5198 186.95 82.1598 186.72 81.9198C186.5 81.6798 186.13 81.5598 185.64 81.5598C185.15 81.5598 184.58 81.6598 183.9 81.8498C184.36 81.5898 184.81 81.3898 185.26 81.2498C185.71 81.1198 186.13 81.0498 186.51 81.0498C187.12 81.0498 187.62 81.1998 188.01 81.4998C188.4 81.7998 188.59 82.2398 188.59 82.8098V86.9298H187.06L187.07 86.9398ZM187.07 83.5498C186.7 83.5498 186.39 83.5998 186.14 83.6998C185.89 83.7998 185.68 83.9198 185.51 84.0698C185.35 84.2198 185.23 84.3898 185.15 84.5798C185.07 84.7698 185.04 84.9498 185.04 85.1398C185.04 85.4298 185.12 85.6798 185.28 85.8898C185.44 86.0998 185.67 86.2098 185.95 86.2098C186.28 86.2098 186.54 86.0698 186.75 85.7998C186.96 85.5298 187.06 85.1798 187.06 84.7498V83.5698L187.07 83.5498Z" fill="#0085A7"/>
<path d="M191.35 82.3898C191.49 81.9798 191.73 81.6598 192.07 81.4198C192.41 81.1798 192.76 81.0598 193.14 81.0598C193.5 81.0598 193.76 81.1598 193.93 81.3498C194.1 81.5398 194.18 81.7598 194.18 81.9898C194.18 82.1998 194.11 82.3998 193.97 82.5798C193.83 82.7598 193.61 82.8498 193.33 82.8498C193.07 82.8498 192.86 82.7698 192.72 82.6098C192.58 82.4498 192.51 82.2798 192.51 82.0798C192.51 81.8498 192.6 81.6498 192.79 81.4998C192.39 81.4098 192.06 81.5298 191.78 81.8498C191.51 82.1798 191.37 82.6398 191.37 83.2298V86.9398H189.84V81.1398H190.6C191.11 81.1398 191.36 81.3098 191.36 81.6598V82.3898H191.35Z" fill="#0085A7"/>
<path d="M199.99 82.0698C200.28 81.7098 200.57 81.4598 200.85 81.2998C201.13 81.1398 201.43 81.0598 201.77 81.0598C202.41 81.0598 202.92 81.3198 203.31 81.8398C203.69 82.3598 203.88 83.0698 203.88 83.9798C203.88 84.4798 203.82 84.9198 203.7 85.2898C203.58 85.6698 203.42 85.9798 203.21 86.2398C203 86.4898 202.76 86.6898 202.48 86.8198C202.2 86.9498 201.9 87.0198 201.57 87.0198C201.18 87.0198 200.85 86.9198 200.58 86.7298C200.31 86.5398 200.11 86.2298 200 85.7998V89.7998H198.47V81.1398H199.23C199.74 81.1398 199.99 81.3898 199.99 81.8998V82.0698ZM201.11 86.6198C201.49 86.6198 201.79 86.4098 202.01 85.9898C202.23 85.5698 202.35 84.9398 202.35 84.1198C202.35 83.2998 202.24 82.6198 202.01 82.1898C201.78 81.7598 201.49 81.5498 201.13 81.5498C200.77 81.5498 200.4 81.7498 200 82.1598V85.0798C200 85.5698 200.11 85.9498 200.33 86.2198C200.55 86.4898 200.81 86.6198 201.12 86.6198H201.11Z" fill="#0085A7"/>
<path d="M207.92 86.9398V85.2898C207.82 85.7998 207.58 86.2098 207.21 86.5298C206.84 86.8498 206.4 87.0098 205.9 87.0098C205.47 87.0098 205.13 86.8898 204.87 86.6398C204.61 86.3998 204.48 86.0598 204.48 85.6298C204.48 85.2998 204.56 85.0098 204.72 84.7398C204.88 84.4698 205.11 84.2398 205.42 84.0398C205.72 83.8498 206.08 83.6998 206.5 83.5998C206.92 83.4998 207.39 83.4498 207.91 83.4498V83.0098C207.91 82.5198 207.8 82.1598 207.57 81.9198C207.35 81.6798 206.99 81.5598 206.49 81.5598C205.99 81.5598 205.43 81.6598 204.75 81.8498C205.21 81.5898 205.66 81.3898 206.11 81.2498C206.56 81.1198 206.98 81.0498 207.36 81.0498C207.97 81.0498 208.47 81.1998 208.86 81.4998C209.25 81.7998 209.44 82.2398 209.44 82.8098V86.9298H207.91L207.92 86.9398ZM207.92 83.5498C207.55 83.5498 207.24 83.5998 206.99 83.6998C206.74 83.7998 206.53 83.9198 206.36 84.0698C206.2 84.2198 206.08 84.3898 206 84.5798C205.92 84.7698 205.89 84.9498 205.89 85.1398C205.89 85.4298 205.97 85.6798 206.13 85.8898C206.29 86.0998 206.52 86.2098 206.8 86.2098C207.13 86.2098 207.39 86.0698 207.6 85.7998C207.81 85.5298 207.91 85.1798 207.91 84.7498V83.5698L207.92 83.5498Z" fill="#0085A7"/>
<path d="M212.2 82.3898C212.34 81.9798 212.58 81.6598 212.92 81.4198C213.26 81.1798 213.61 81.0598 213.99 81.0598C214.35 81.0598 214.61 81.1598 214.78 81.3498C214.95 81.5398 215.03 81.7598 215.03 81.9898C215.03 82.1998 214.96 82.3998 214.82 82.5798C214.68 82.7598 214.46 82.8498 214.18 82.8498C213.92 82.8498 213.71 82.7698 213.57 82.6098C213.43 82.4498 213.36 82.2798 213.36 82.0798C213.36 81.8498 213.45 81.6498 213.64 81.4998C213.24 81.4098 212.91 81.5298 212.63 81.8498C212.36 82.1798 212.22 82.6398 212.22 83.2298V86.9398H210.69V81.1398H211.45C211.96 81.1398 212.21 81.3098 212.21 81.6598V82.3898H212.2Z" fill="#0085A7"/>
<path d="M218.48 86.9398V85.2898C218.38 85.7998 218.14 86.2098 217.77 86.5298C217.4 86.8498 216.96 87.0098 216.46 87.0098C216.03 87.0098 215.69 86.8898 215.43 86.6398C215.17 86.3998 215.04 86.0598 215.04 85.6298C215.04 85.2998 215.12 85.0098 215.28 84.7398C215.44 84.4698 215.67 84.2398 215.98 84.0398C216.28 83.8498 216.64 83.6998 217.06 83.5998C217.48 83.4998 217.95 83.4498 218.47 83.4498V83.0098C218.47 82.5198 218.36 82.1598 218.13 81.9198C217.91 81.6798 217.55 81.5598 217.05 81.5598C216.55 81.5598 215.99 81.6598 215.31 81.8498C215.77 81.5898 216.22 81.3898 216.67 81.2498C217.12 81.1198 217.54 81.0498 217.92 81.0498C218.53 81.0498 219.03 81.1998 219.42 81.4998C219.81 81.7998 220 82.2398 220 82.8098V86.9298H218.47L218.48 86.9398ZM218.48 83.5498C218.11 83.5498 217.8 83.5998 217.55 83.6998C217.3 83.7998 217.09 83.9198 216.92 84.0698C216.76 84.2198 216.64 84.3898 216.56 84.5798C216.48 84.7698 216.45 84.9498 216.45 85.1398C216.45 85.4298 216.53 85.6798 216.69 85.8898C216.85 86.0998 217.08 86.2098 217.36 86.2098C217.69 86.2098 217.95 86.0698 218.16 85.7998C218.37 85.5298 218.47 85.1798 218.47 84.7498V83.5698L218.48 83.5498Z" fill="#0085A7"/>
<path d="M226.12 86.94H224.59V78.23H225.35C225.86 78.23 226.11 78.48 226.11 78.99V86.93L226.12 86.94Z" fill="#0085A7"/>
<path d="M230.47 86.9398V85.2898C230.37 85.7998 230.13 86.2098 229.76 86.5298C229.39 86.8498 228.95 87.0098 228.45 87.0098C228.02 87.0098 227.68 86.8898 227.42 86.6398C227.16 86.3998 227.03 86.0598 227.03 85.6298C227.03 85.2998 227.11 85.0098 227.27 84.7398C227.43 84.4698 227.66 84.2398 227.97 84.0398C228.27 83.8498 228.63 83.6998 229.05 83.5998C229.47 83.4998 229.94 83.4498 230.46 83.4498V83.0098C230.46 82.5198 230.35 82.1598 230.12 81.9198C229.9 81.6798 229.54 81.5598 229.04 81.5598C228.54 81.5598 227.98 81.6598 227.3 81.8498C227.76 81.5898 228.21 81.3898 228.66 81.2498C229.11 81.1198 229.53 81.0498 229.91 81.0498C230.52 81.0498 231.02 81.1998 231.41 81.4998C231.8 81.7998 231.99 82.2398 231.99 82.8098V86.9298H230.46L230.47 86.9398ZM230.47 83.5498C230.1 83.5498 229.79 83.5998 229.54 83.6998C229.29 83.7998 229.08 83.9198 228.91 84.0698C228.75 84.2198 228.63 84.3898 228.55 84.5798C228.47 84.7698 228.44 84.9498 228.44 85.1398C228.44 85.4298 228.52 85.6798 228.68 85.8898C228.84 86.0998 229.07 86.2098 229.35 86.2098C229.68 86.2098 229.94 86.0698 230.15 85.7998C230.36 85.5298 230.46 85.1798 230.46 84.7498V83.5698L230.47 83.5498Z" fill="#0085A7"/>
<path d="M235.76 85.7798C235.76 85.5898 235.7 85.4098 235.58 85.2398C235.46 85.0698 235.3 84.9098 235.12 84.7498C234.94 84.5898 234.74 84.4398 234.52 84.2798C234.3 84.1198 234.1 83.9498 233.92 83.7698C233.74 83.5898 233.58 83.3898 233.46 83.1798C233.34 82.9698 233.28 82.7298 233.28 82.4698C233.28 82.0398 233.45 81.6998 233.78 81.4498C234.12 81.1998 234.55 81.0698 235.09 81.0698C235.56 81.0698 235.96 81.1598 236.28 81.3498C236.6 81.5398 236.87 81.7598 237.07 82.0198C236.86 81.8598 236.61 81.7298 236.34 81.6498C236.07 81.5698 235.81 81.5298 235.55 81.5298C235.28 81.5298 235.04 81.5898 234.84 81.6998C234.64 81.8098 234.54 81.9898 234.54 82.2198C234.54 82.3998 234.6 82.5698 234.73 82.7198C234.86 82.8698 235.02 83.0098 235.21 83.1398C235.4 83.2698 235.61 83.4098 235.84 83.5498C236.07 83.6898 236.28 83.8398 236.47 84.0098C236.66 84.1798 236.82 84.3698 236.95 84.5898C237.08 84.8098 237.14 85.0598 237.14 85.3598C237.14 85.8598 236.95 86.2598 236.58 86.5698C236.21 86.8798 235.72 87.0398 235.11 87.0398C234.58 87.0398 234.12 86.9298 233.74 86.6998C233.36 86.4798 233.08 86.2098 232.89 85.9098C233.1 86.1198 233.37 86.2898 233.69 86.3998C234.01 86.5098 234.32 86.5698 234.61 86.5698C234.9 86.5698 235.18 86.5098 235.4 86.3898C235.62 86.2698 235.73 86.0698 235.73 85.8098L235.76 85.7798Z" fill="#0085A7"/>
<path d="M242.97 82.5398C243.11 82.0798 243.34 81.7198 243.66 81.4598C243.98 81.1898 244.35 81.0598 244.78 81.0598C245.21 81.0598 245.56 81.1898 245.83 81.4598C246.1 81.7198 246.25 82.0798 246.28 82.5098C246.42 82.0598 246.65 81.7098 246.97 81.4498C247.29 81.1898 247.65 81.0598 248.07 81.0598C248.52 81.0598 248.88 81.2098 249.15 81.4998C249.42 81.7998 249.56 82.1798 249.56 82.6598V86.9398H248.03V82.6798C248.03 82.3698 247.97 82.1398 247.86 81.9598C247.75 81.7898 247.59 81.6998 247.39 81.6998C247.18 81.6998 246.96 81.7898 246.76 81.9698C246.55 82.1498 246.39 82.3798 246.28 82.6798V86.9398H244.75V82.6798C244.75 82.3698 244.69 82.1398 244.58 81.9598C244.47 81.7898 244.31 81.6998 244.11 81.6998C243.89 81.6998 243.67 81.7998 243.46 81.9898C243.25 82.1798 243.09 82.4298 242.98 82.7198V86.9398H241.45V81.1398H242.21C242.72 81.1398 242.97 81.3898 242.97 81.8998V82.5398Z" fill="#0085A7"/>
<path d="M253.9 86.9398V85.2898C253.8 85.7998 253.56 86.2098 253.19 86.5298C252.82 86.8498 252.38 87.0098 251.88 87.0098C251.45 87.0098 251.11 86.8898 250.85 86.6398C250.59 86.3998 250.46 86.0598 250.46 85.6298C250.46 85.2998 250.54 85.0098 250.7 84.7398C250.86 84.4698 251.09 84.2398 251.4 84.0398C251.7 83.8498 252.06 83.6998 252.48 83.5998C252.9 83.4998 253.37 83.4498 253.89 83.4498V83.0098C253.89 82.5198 253.78 82.1598 253.55 81.9198C253.33 81.6798 252.97 81.5598 252.47 81.5598C251.97 81.5598 251.41 81.6598 250.73 81.8498C251.19 81.5898 251.64 81.3898 252.09 81.2498C252.54 81.1198 252.96 81.0498 253.34 81.0498C253.95 81.0498 254.45 81.1998 254.84 81.4998C255.23 81.7998 255.42 82.2398 255.42 82.8098V86.9298H253.89L253.9 86.9398ZM253.9 83.5498C253.53 83.5498 253.22 83.5998 252.97 83.6998C252.72 83.7998 252.51 83.9198 252.34 84.0698C252.18 84.2198 252.06 84.3898 251.98 84.5798C251.9 84.7698 251.87 84.9498 251.87 85.1398C251.87 85.4298 251.95 85.6798 252.11 85.8898C252.27 86.0998 252.5 86.2098 252.78 86.2098C253.11 86.2098 253.37 86.0698 253.58 85.7998C253.79 85.5298 253.89 85.1798 253.89 84.7498V83.5698L253.9 83.5498Z" fill="#0085A7"/>
<path d="M258.18 82.5398C258.32 82.0798 258.55 81.7198 258.87 81.4598C259.19 81.1898 259.56 81.0598 259.99 81.0598C260.42 81.0598 260.77 81.1898 261.04 81.4598C261.31 81.7198 261.46 82.0798 261.49 82.5098C261.63 82.0598 261.86 81.7098 262.18 81.4498C262.5 81.1898 262.86 81.0598 263.28 81.0598C263.73 81.0598 264.09 81.2098 264.36 81.4998C264.63 81.7998 264.77 82.1798 264.77 82.6598V86.9398H263.24V82.6798C263.24 82.3698 263.18 82.1398 263.07 81.9598C262.96 81.7898 262.8 81.6998 262.6 81.6998C262.39 81.6998 262.17 81.7898 261.97 81.9698C261.76 82.1498 261.6 82.3798 261.49 82.6798V86.9398H259.96V82.6798C259.96 82.3698 259.9 82.1398 259.79 81.9598C259.68 81.7898 259.52 81.6998 259.32 81.6998C259.1 81.6998 258.88 81.7998 258.67 81.9898C258.46 82.1798 258.3 82.4298 258.19 82.7198V86.9398H256.66V81.1398H257.42C257.93 81.1398 258.18 81.3898 258.18 81.8998V82.5398Z" fill="#0085A7"/>
<path d="M269.12 86.9399V85.2899C269.02 85.7999 268.78 86.2099 268.41 86.5299C268.04 86.8499 267.6 87.0099 267.1 87.0099C266.67 87.0099 266.33 86.8899 266.07 86.6399C265.81 86.3999 265.68 86.0599 265.68 85.6299C265.68 85.2999 265.76 85.0099 265.92 84.7399C266.08 84.4699 266.31 84.2399 266.62 84.0399C266.92 83.8499 267.28 83.6999 267.7 83.5999C268.12 83.4999 268.59 83.4499 269.11 83.4499V83.0099C269.11 82.5199 269 82.1599 268.77 81.9199C268.55 81.6799 268.19 81.5599 267.69 81.5599C267.19 81.5599 266.63 81.6599 265.95 81.8499C266.41 81.5899 266.86 81.3899 267.31 81.2499C267.76 81.1199 268.18 81.0499 268.56 81.0499C269.17 81.0499 269.67 81.1999 270.06 81.4999C270.45 81.7999 270.64 82.2399 270.64 82.8099V86.9299H269.11L269.12 86.9399ZM269.12 83.5499C268.75 83.5499 268.44 83.5999 268.19 83.6999C267.94 83.7999 267.73 83.9199 267.56 84.0699C267.4 84.2199 267.28 84.3899 267.2 84.5799C267.12 84.7699 267.09 84.9499 267.09 85.1399C267.09 85.4299 267.17 85.6799 267.33 85.8899C267.49 86.0999 267.72 86.2099 268 86.2099C268.33 86.2099 268.59 86.0699 268.8 85.7999C269.01 85.5299 269.11 85.1799 269.11 84.7499V83.5699L269.12 83.5499ZM268.49 78.7099C268.61 78.4799 268.78 78.3599 268.99 78.3599C269.13 78.3599 269.25 78.3999 269.33 78.4899C269.42 78.5799 269.46 78.6899 269.46 78.8299C269.46 79.0199 269.37 79.1799 269.19 79.2999L267.53 80.4899L268.49 78.6999V78.7099Z" fill="#0085A7"/>
<path d="M274.4 85.7798C274.4 85.5898 274.34 85.4098 274.22 85.2398C274.1 85.0698 273.94 84.9098 273.76 84.7498C273.58 84.5898 273.38 84.4398 273.16 84.2798C272.94 84.1198 272.74 83.9498 272.56 83.7698C272.38 83.5898 272.22 83.3898 272.1 83.1798C271.98 82.9698 271.92 82.7298 271.92 82.4698C271.92 82.0398 272.09 81.6998 272.42 81.4498C272.76 81.1998 273.19 81.0698 273.73 81.0698C274.2 81.0698 274.6 81.1598 274.92 81.3498C275.25 81.5298 275.51 81.7598 275.71 82.0198C275.5 81.8598 275.25 81.7298 274.98 81.6498C274.71 81.5698 274.45 81.5298 274.19 81.5298C273.92 81.5298 273.68 81.5898 273.48 81.6998C273.28 81.8098 273.18 81.9898 273.18 82.2198C273.18 82.3998 273.24 82.5698 273.37 82.7198C273.5 82.8698 273.66 83.0098 273.85 83.1398C274.04 83.2698 274.25 83.4098 274.48 83.5498C274.71 83.6898 274.92 83.8398 275.11 84.0098C275.3 84.1798 275.46 84.3698 275.59 84.5898C275.72 84.8098 275.78 85.0598 275.78 85.3598C275.78 85.8598 275.59 86.2598 275.22 86.5698C274.85 86.8798 274.36 87.0398 273.75 87.0398C273.22 87.0398 272.76 86.9298 272.38 86.6998C272 86.4798 271.72 86.2098 271.53 85.9098C271.74 86.1198 272.01 86.2898 272.33 86.3998C272.65 86.5098 272.96 86.5698 273.25 86.5698C273.54 86.5698 273.82 86.5098 274.04 86.3898C274.26 86.2698 274.37 86.0698 274.37 85.8098L274.4 85.7798Z" fill="#0085A7"/>
<path d="M324.83 78.53C307.91 78.53 294.2 64.82 294.2 47.91C294.2 31 307.91 17.29 324.83 17.29C334.2 17.29 342.58 21.5 348.2 28.13L359.13 21.82C351.18 11.6 338.78 5.02002 324.83 5.02002C300.84 5.02002 281.4 24.46 281.4 48.45C281.4 72.44 300.85 91.88 324.83 91.88C339.12 91.88 351.79 84.98 359.71 74.33L348.2 67.69C342.58 74.32 334.2 78.53 324.83 78.53Z" fill="white"/>
<path d="M369.14 24.46C368.48 24.46 367.82 24.51 367.17 24.56C367.28 24.6 367.39 24.63 367.5 24.69C367.91 24.89 368.23 25.17 368.47 25.49C368.74 25.85 368.91 26.28 368.99 26.77C369.04 26.77 369.09 26.77 369.14 26.77C369.71 26.77 370.27 26.81 370.83 26.85C382.01 27.71 390.83 37.04 390.83 48.45C390.83 60.43 381.12 70.13 369.15 70.13C369.05 70.13 368.95 70.12 368.84 70.12C368.62 70.12 368.41 70.09 368.19 70.08C367.1 70.03 366.02 69.92 364.98 69.72C364.3 69.59 363.64 69.42 362.99 69.23C358.63 67.94 354.86 65.32 352.12 61.84C349.22 58.15 347.47 53.51 347.47 48.45C347.47 43.39 349.34 38.38 352.45 34.63C354.97 31.59 358.32 29.26 362.14 27.96C362.14 27.55 362.21 27.13 362.38 26.72C362.38 26.7 362.4 26.68 362.41 26.65C362.61 26.2 362.86 25.83 363.16 25.53C363.22 25.46 363.29 25.4 363.36 25.34C363.44 25.27 363.52 25.21 363.6 25.15C362.99 25.29 362.39 25.45 361.8 25.64C357.7 26.96 354.1 29.36 351.3 32.49C347.5 36.73 345.17 42.32 345.17 48.46C345.17 54.6 347.34 59.82 350.91 64C353.76 67.35 357.51 69.9 361.8 71.28C362.46 71.49 363.13 71.66 363.81 71.82C364.33 71.94 364.86 72.0299 365.4 72.1099C365.93 72.1899 366.46 72.28 367.01 72.32C367.72 72.38 368.44 72.43 369.16 72.43C382.41 72.43 393.15 61.69 393.15 48.44C393.15 35.19 382.41 24.45 369.16 24.45L369.14 24.46Z" fill="white"/>
<path d="M379.62 48.4499C379.35 48.4899 379.11 48.3899 378.9 48.2099C378.8 48.1199 378.74 48.0899 378.65 48.2299C378.23 48.9299 377.92 49.6699 378.03 50.5099C378.22 51.9499 379.53 53.2299 381.02 53.4199C382.13 53.5599 381.91 53.5699 382.44 52.6999C382.49 52.6099 382.52 52.5199 382.57 52.4399C382.9 51.7999 383.2 51.1499 383.61 50.5599C383.72 50.3999 383.84 50.2999 383.95 50.2299C384.21 50.0699 384.47 50.1499 384.72 50.5099C384.77 50.2999 384.82 50.1099 384.85 49.9199C384.92 49.4799 384.98 49.0399 385.05 48.5999C385.09 48.3299 385.18 48.0399 385.46 47.9399C385.73 47.8299 385.64 47.7099 385.54 47.5599C385.48 47.4699 385.42 47.3799 385.34 47.2999C384.94 46.8699 384.47 46.5699 383.93 46.3799C383.78 46.3299 383.62 46.2799 383.46 46.2499C381.89 45.9199 380.52 46.3999 379.31 47.3999C379.19 47.4999 379.15 47.6399 379.21 47.7799C379.27 47.9399 379.43 47.9399 379.57 47.9299C379.75 47.9099 379.88 47.9699 379.89 48.1699C379.89 48.3699 379.75 48.4299 379.59 48.4499H379.62ZM381.13 49.1399C381.28 49.1199 381.38 49.1899 381.4 49.3499C381.43 49.5699 381.57 49.6499 381.77 49.6299C381.98 49.6099 382.2 49.5799 382.18 49.8699C382.16 50.1499 381.92 50.1299 381.76 50.1599C381.28 50.1399 380.93 49.8299 380.93 49.4499C380.93 49.2899 380.96 49.1599 381.14 49.1399H381.13ZM381.42 51.0799C381.57 50.9699 381.71 50.8499 381.86 51.0499C382.01 51.2499 381.88 51.3999 381.72 51.5099C381.35 51.7699 380.94 51.8699 380.52 51.8799C379.9 51.8499 379.37 51.6499 378.99 51.1599C378.87 51.0099 378.74 50.8399 378.93 50.6799C379.13 50.4999 379.25 50.6799 379.38 50.8199C379.89 51.4399 380.76 51.5499 381.42 51.0799Z" fill="white"/>
<path d="M364.07 30.8201C363.15 30.3901 362.52 29.6301 362.25 28.7701C358.5 30.0801 355.23 32.4201 352.81 35.4701C349.97 39.0301 348.27 43.5401 348.27 48.4501C348.27 53.3601 349.86 57.5301 352.51 61.0201C355.2 64.5701 358.98 67.2301 363.36 68.4901C364.01 68.6801 364.68 68.8301 365.36 68.9601C366.41 69.1501 367.48 69.2601 368.58 69.2901C368.77 69.2901 368.95 69.3201 369.14 69.3201C369.54 69.3201 369.93 69.2801 370.32 69.2601C381.29 68.6501 390.01 59.5801 390.01 48.4501C390.01 38.1201 382.5 29.5701 372.64 27.9001C371.5 27.7101 370.34 27.5801 369.14 27.5801C369.1 27.5801 369.06 27.5801 369.02 27.5801C369 27.8101 368.95 28.0401 368.89 28.2701C368.78 28.6701 368.62 29.0501 368.44 29.4301C368.42 29.4801 368.39 29.5301 368.35 29.6201C368.77 29.6901 369.17 29.7201 369.56 29.7801C369.64 29.7901 369.72 29.8001 369.8 29.8101C372.54 30.3801 374.84 31.6601 376.47 33.9701C377.91 36.0101 378.06 38.2201 377.13 40.5101C376.93 41.0001 376.68 41.4801 376.38 41.9201C376.28 42.0701 376.24 42.2301 376.17 42.4001C375.53 44.0801 374.81 45.7201 373.55 47.0501C373.46 47.1501 373.36 47.2401 373.26 47.3301C372.53 48.0401 371.72 48.6201 370.78 49.0201C370.65 49.0701 370.52 49.1201 370.37 49.0701C370.33 49.0901 370.29 49.1001 370.25 49.1201C369.61 49.4501 368.93 49.4301 368.25 49.2801C368.2 49.2701 368.15 49.2601 368.09 49.2501C367.85 49.1901 367.62 49.0801 367.4 48.9601C367.01 48.7301 366.78 48.7501 366.44 49.0801C365.82 49.6801 365.46 50.4501 365.12 51.2301C364.81 51.9401 364.56 52.6601 364.42 53.4301C364.39 53.6001 364.31 53.6801 364.14 53.6701C363.95 53.6501 363.92 53.5201 363.94 53.3701C364.02 52.6601 364.26 51.9901 364.52 51.3401C364.88 50.4401 365.29 49.5701 365.96 48.8401C366.4 48.3601 367.05 48.1201 367.69 48.5301C367.87 48.6501 368.06 48.7301 368.25 48.7901C368.9 49.0001 369.58 48.9101 370.25 48.6801C370.37 48.6401 370.49 48.5901 370.61 48.5501C370.7 48.5101 370.77 48.4401 370.88 48.4701C371.76 47.9601 372.55 47.3501 373.23 46.6101C373.38 46.4501 373.53 46.2801 373.67 46.1101C374.06 45.6101 374.44 45.1001 374.7 44.5001C374.79 44.2901 374.82 44.2301 374.56 44.1701C374.08 44.0501 373.71 43.7801 373.65 43.2301C373.63 43.0401 373.62 42.8301 373.86 42.7901C374.1 42.7501 374.14 42.9401 374.14 43.1301C374.16 43.5701 374.66 43.7301 374.99 43.6801C375.09 43.6601 375.14 43.5901 375.17 43.5101C375.67 42.3001 376.14 41.0901 376.16 39.7501C376.2 37.8601 374.74 36.7901 373.32 36.5201C372.8 36.4201 372.31 36.6001 371.85 36.8401C371.79 36.8701 371.73 36.9001 371.68 36.9301C370.76 37.4601 370.09 38.2301 369.49 39.0901C369.43 39.1701 369.38 39.2601 369.33 39.3501C369.15 39.6301 368.97 39.9101 368.8 40.2001C368.63 40.4801 368.45 40.7401 368.59 41.1101C368.65 41.2601 368.63 41.4601 368.4 41.4801C368.18 41.5001 368.14 41.3501 368.11 41.1701C368.05 40.8401 367.88 40.5601 367.66 40.3101C367.6 40.2501 367.53 40.2101 367.47 40.1701C367.14 39.9701 366.75 40.0301 366.49 40.3801C366.06 40.9601 366.2 42.1401 366.75 42.6101C366.87 42.7101 367 42.7801 367.17 42.7701C367.35 42.7701 367.48 42.8301 367.48 43.0201C367.48 43.2301 367.31 43.3001 367.17 43.2701C366.86 43.1801 366.73 43.4001 366.59 43.5701C365.29 45.1501 363.63 46.2001 361.76 46.9701C360.65 47.4201 359.48 47.6901 358.35 48.0701C357.26 48.4201 356.27 48.9301 355.41 49.6801C355.36 49.7201 355.3 49.7601 355.25 49.8101C354.24 50.7601 353.68 51.9601 353.37 53.2901C353 54.8401 353.27 56.3001 353.85 57.7101C353.94 57.9201 354.03 58.1301 354.13 58.3401C354.93 60.0101 356.06 61.4201 357.41 62.6801C359.26 64.4101 361.4 65.6401 363.8 66.4301C363.97 66.4801 364.14 66.5301 364.3 66.5801C364.96 66.7701 365.61 66.9301 366.28 67.0401C367.34 67.2201 368.41 67.3001 369.49 67.2801C370.36 67.2701 371.23 67.1901 372.11 67.0501C373.72 66.8001 375.23 66.3001 376.66 65.6001C377.25 65.3101 377.84 65.0001 378.4 64.6501C378.56 64.5501 378.7 64.4401 378.86 64.3301C379.39 63.9601 379.9 63.5701 380.4 63.1501C381.32 62.3601 382.15 61.4901 382.91 60.5601C383.28 60.1001 383.62 59.6101 383.95 59.1201C384.08 58.9201 384.22 58.7201 384.35 58.5201C385.39 56.9301 386.14 55.1901 386.86 53.4501C387.15 52.7601 387.38 52.0401 387.42 51.2801C387.43 51.1001 387.49 50.8201 387.32 50.7801C387.1 50.7401 387.05 51.0301 387 51.2001C386.84 51.7701 386.74 52.3401 386.51 52.8901C386.38 53.1901 386.24 53.4801 386.04 53.7501C385.95 53.8801 385.83 53.9501 385.68 53.8501C385.51 53.7501 385.54 53.6001 385.64 53.4501C386.38 52.2901 386.58 50.9801 386.61 49.6401C386.61 49.3601 386.6 49.3101 386.46 49.0301C386.3 49.4501 386.29 49.8801 386.23 50.2901C386.08 51.4401 385.74 52.5201 385.02 53.4501C384.96 53.5301 384.9 53.6201 384.83 53.6701C384.7 53.7601 384.56 53.7701 384.45 53.6401C384.35 53.5201 384.39 53.4101 384.48 53.2901C385.47 51.9701 385.83 50.4701 385.76 48.8401C385.76 48.7101 385.74 48.5801 385.65 48.4501C385.47 48.7301 385.48 49.0401 385.45 49.3401C385.31 50.7601 384.72 51.9701 383.94 53.1001C383.78 53.3301 383.63 53.5501 383.46 53.7701C383.36 53.9001 383.23 54.0301 383.05 53.9001C382.87 53.7801 382.94 53.6101 383.03 53.4601C383.4 52.8201 383.7 52.1601 383.94 51.4701C383.98 51.3501 384.04 51.2401 384.07 51.1101C384.1 51.0101 384.15 50.9001 384.1 50.7601C384.03 50.8201 383.99 50.9001 383.94 50.9701C383.77 51.1901 383.64 51.4201 383.53 51.6601C382.86 53.1101 381.98 54.4001 380.9 55.5701C378.89 57.7401 376.64 59.5501 373.78 60.4801C373.07 60.7101 372.36 60.8201 371.65 60.8801C370.62 60.9601 369.59 60.9001 368.56 60.7001C368.42 60.6701 368.28 60.6601 368.15 60.6301C367.63 60.5201 367.12 60.3801 366.62 60.2301C364.27 59.5201 362.14 58.3601 360.25 56.7101C359.94 56.4401 359.67 56.1201 359.39 55.8101C359.27 55.6901 359.22 55.5301 359.36 55.4101C359.51 55.2701 359.65 55.3501 359.78 55.4801C361.71 57.6001 364.09 58.9201 366.75 59.7301C367.18 59.8601 367.61 59.9801 368.05 60.0901C368.26 60.1401 368.47 60.1701 368.68 60.2101C369.71 60.4001 370.75 60.4601 371.77 60.3601C372.39 60.3001 373.01 60.1901 373.62 60.0001C375.16 59.5101 376.54 58.7001 377.82 57.7201C379.12 56.7201 380.28 55.5801 381.3 54.3001C381.37 54.2201 381.45 54.1401 381.46 54.0101C381.23 53.9701 380.99 53.9201 380.76 53.8801C379.74 53.6901 378.93 53.1501 378.28 52.3601C378.16 52.2201 378.04 52.1401 377.86 52.1001C376.43 51.7301 375.32 50.9101 374.49 49.6901C374.36 49.5001 374.21 49.3101 374.02 49.0501C373.99 49.3901 374.1 49.6101 374.17 49.8401C374.22 49.9901 374.29 50.1401 374.13 50.2501C373.96 50.3701 373.82 50.2701 373.69 50.1601C373.54 50.0401 373.38 49.9401 373.2 49.8401C373.05 49.7601 372.9 49.6901 372.73 49.6301C372.82 49.9501 373 50.1801 373.19 50.4001C373.26 50.4801 373.32 50.5601 373.39 50.6401C373.52 50.8001 373.81 50.9201 373.63 51.1801C373.47 51.4001 373.31 51.2801 373.16 51.1801C373.12 51.1501 373.08 51.1301 373.03 51.1101C372.81 51.0301 372.63 50.8401 372.37 50.8501C372.32 50.9701 372.39 51.0501 372.45 51.1401C372.64 51.4301 372.87 51.6901 373.09 51.9401C373.56 52.4501 374.09 52.9001 374.65 53.3001C375.33 53.7901 376.09 54.1901 376.91 54.4501C377.09 54.5101 377.31 54.5701 377.22 54.8201C377.14 55.0601 376.93 55.0001 376.75 54.9301C375.33 54.4001 374.09 53.6401 373.05 52.6001C372.7 52.2501 372.38 51.8801 372.07 51.4701C371.96 51.3101 371.88 51.1301 371.83 50.9401C371.75 50.6101 371.89 50.3801 372.22 50.3301C372.41 50.3001 372.44 50.2601 372.35 50.0901C372.21 49.8001 372.08 49.4801 372.37 49.2201C372.64 48.9801 372.93 49.1301 373.2 49.2601C373.21 49.2601 373.23 49.2701 373.25 49.2801C373.31 49.3101 373.37 49.3701 373.46 49.3401C373.51 49.2901 373.46 49.2401 373.46 49.1801C373.44 48.9101 373.45 48.6301 373.75 48.5201C374.05 48.4101 374.28 48.5701 374.45 48.8001C374.64 49.0501 374.83 49.3001 375.01 49.5601C375.6 50.4101 376.39 50.9901 377.33 51.4001C377.41 51.4401 377.49 51.4601 377.57 51.4901C377.6 51.4901 377.63 51.4901 377.7 51.4901C377.18 50.1201 377.49 48.8901 378.28 47.7501C379.07 46.6001 380.23 46.0301 381.54 45.6901C380.9 44.7801 380.86 44.1301 381.38 43.3001C381.9 42.4701 383.11 42.2801 383.88 42.8401C383.96 42.9001 384.04 42.9501 384.11 43.0301C384.48 43.4201 384.52 44.2201 384.18 44.6701C384.1 44.7701 384 44.8501 383.89 44.9201C383.56 45.1001 383.11 45.1201 382.76 44.9201C382.44 44.7401 382.33 44.4401 382.33 44.1001C382.33 43.9401 382.4 43.7901 382.59 43.7901C382.78 43.7901 382.85 43.9101 382.84 44.0901C382.82 44.3701 382.96 44.5301 383.23 44.5601C383.49 44.5801 383.73 44.5101 383.84 44.2401C383.87 44.1701 383.87 44.1101 383.88 44.0401V43.7401C383.83 43.4901 383.68 43.2701 383.41 43.1501C382.91 42.9201 382.32 43.0401 381.92 43.4601C381.54 43.8601 381.41 44.5601 381.67 45.0001C381.93 45.4501 382.38 45.5901 382.86 45.6401C383.22 45.6801 383.56 45.7601 383.88 45.8601C384.53 46.0601 385.12 46.3901 385.62 46.9001C385.96 47.2601 386.2 47.6801 386.3 48.1801C386.33 48.3201 386.37 48.4301 386.55 48.4701C386.86 48.5401 386.94 48.8301 387.01 49.0901C387.09 49.3901 387.08 49.6901 387.07 50.0001C387.07 50.1101 387.05 50.2001 387.22 50.2201C387.66 50.2801 387.83 50.4701 387.88 50.9201C387.93 51.4401 387.82 51.9401 387.67 52.4301C387.1 54.3501 386.23 56.1301 385.27 57.8801C384.87 58.6101 384.38 59.2901 383.89 59.9601C383.81 60.0801 383.72 60.1901 383.64 60.3101C383.07 61.1101 382.43 61.8601 381.7 62.5401C381.59 62.6401 381.48 62.7401 381.38 62.8401C380.96 63.2401 380.55 63.6401 380.09 64.0001C378.24 65.4601 376.2 66.5101 373.96 67.1201C373.52 67.2401 373.08 67.3701 372.63 67.4601C371.49 67.6701 370.35 67.7601 369.21 67.7601C368.14 67.7601 367.07 67.6801 366.01 67.4901C365.5 67.4001 364.99 67.3101 364.48 67.1701C364.33 67.1301 364.18 67.0701 364.03 67.0301C362.21 66.4901 360.51 65.7001 358.95 64.6001C357.92 63.8801 356.96 63.0801 356.12 62.1501C355.07 61.0101 354.18 59.7801 353.55 58.4001C353.29 57.8401 353.06 57.2501 352.9 56.6301C352.27 54.2301 352.77 52.0201 354.25 50.0601C354.57 49.6301 354.96 49.2801 355.37 48.9601C356.07 48.4301 356.86 48.0201 357.71 47.7101C358.96 47.2501 360.27 47.0101 361.5 46.4901C362.4 46.1101 363.28 45.6701 364.09 45.1201C364.23 45.0301 364.31 44.9601 364.09 44.8601C363.23 44.4601 362.69 43.7301 362.28 42.9201C361.1 40.6001 360.83 38.1401 361.37 35.6201C361.76 33.8101 362.63 32.2501 364.13 31.0901C364.41 30.8701 364.12 30.8601 364.02 30.8201H364.07ZM370.06 40.3801C370.26 40.3501 370.33 40.4901 370.36 40.6801C370.45 41.2401 370.84 41.5201 371.5 41.5201C371.66 41.5201 371.82 41.5201 371.85 41.7301C371.88 41.9301 371.72 41.9801 371.57 42.0201C371.51 42.0401 371.44 42.0401 371.42 42.0501C370.63 42.0501 369.96 41.4801 369.87 40.7801C369.84 40.6001 369.87 40.4301 370.07 40.4001L370.06 40.3801ZM370.06 44.3301C370.18 44.2401 370.29 44.2501 370.41 44.3601C370.92 44.8201 371.18 44.8001 371.58 44.2201C371.96 43.6701 372.2 43.0501 372.44 42.4301C372.5 42.2801 372.56 42.1301 372.63 41.9801C372.67 41.8901 372.74 41.8501 372.82 41.8401C372.86 41.8401 372.9 41.8201 372.96 41.8401C373.1 41.9001 373.15 42.0301 373.09 42.1601C373.03 42.3101 372.98 42.4501 372.92 42.6001C372.65 43.2901 372.39 43.9901 371.94 44.5901C371.69 44.9301 371.37 45.1901 370.83 45.1901C370.54 45.2101 370.3 45.0101 370.1 44.7501C370.08 44.7201 370.05 44.7001 370.03 44.6701C369.94 44.5501 369.95 44.4201 370.07 44.3301H370.06ZM368.4 44.6601C368.62 44.6901 368.59 44.8501 368.59 45.0101V45.1401C368.58 45.8501 368.96 46.4301 369.58 46.6401C369.75 46.7001 369.94 46.7601 369.86 46.9901C369.78 47.2301 369.57 47.2001 369.39 47.1301C368.74 46.8701 368.34 46.3901 368.17 45.7201C368.17 45.6901 368.15 45.6701 368.14 45.6401C368.09 45.4201 368.06 45.1901 368.1 44.9601C368.1 44.9601 368.1 44.9401 368.1 44.9301C368.13 44.7701 368.18 44.6301 368.4 44.6601Z" fill="white"/>
<path d="M367.35 39.57C367.58 39.62 367.81 39.74 368.01 39.94C368.24 40.18 368.31 40.06 368.42 39.87C368.66 39.45 368.91 39.05 369.19 38.66C369.42 38.34 369.66 38.03 369.93 37.74C370.47 37.16 371.05 36.65 371.76 36.32C372.03 36.2 372.3 36.1 372.61 36.04C374.34 35.69 376.44 37.29 376.64 39.09C376.67 39.41 376.69 39.73 376.72 40.12C377.07 39.34 377.19 38.59 377.19 37.81C377.21 36 376.45 34.49 375.21 33.24C373.68 31.7 371.86 30.74 369.78 30.35C369.42 30.28 369.05 30.23 368.67 30.19C367.91 30.12 367.2 30.21 366.53 30.41C365.9 30.6 365.31 30.91 364.75 31.3C364.66 31.36 364.57 31.41 364.48 31.47C363.48 32.24 362.79 33.27 362.32 34.45C361.73 35.96 361.57 37.53 361.74 39.13C361.9 40.62 362.3 42.04 363.15 43.29C363.51 43.82 363.93 44.28 364.56 44.5C364.77 44.57 364.93 44.54 365.09 44.39C365.47 44.05 365.82 43.68 366.16 43.29C366.34 43.08 366.35 42.97 366.19 42.72C365.7 42 365.56 41.21 365.91 40.37C366.18 39.72 366.78 39.43 367.35 39.57Z" fill="white"/>
<path d="M362.73 27.24C362.69 27.4 362.67 27.58 362.66 27.75C362.66 27.81 362.66 27.87 362.66 27.93C362.66 28.05 362.65 28.16 362.66 28.28C362.68 28.39 362.72 28.47 362.75 28.57C362.97 29.41 363.51 29.97 364.29 30.32C364.4 30.37 364.49 30.43 364.61 30.47C364.81 30.54 364.97 30.52 365.16 30.42C365.53 30.22 365.9 30.05 366.29 29.92C366.66 29.8 367.05 29.71 367.45 29.68C367.63 29.67 367.72 29.57 367.81 29.44C368.08 29 368.28 28.53 368.41 28.04C368.45 27.9 368.46 27.75 368.48 27.61C368.48 27.57 368.5 27.52 368.5 27.48C368.51 27.31 368.5 27.13 368.49 26.97C368.49 26.91 368.47 26.86 368.46 26.8C368.34 26.12 367.96 25.52 367.32 25.19C366.95 25 366.5 24.89 365.97 24.91C365.26 24.9 364.6 25.09 364 25.49C363.91 25.55 363.83 25.59 363.75 25.66C363.2 26.1 362.85 26.63 362.71 27.24H362.73Z" fill="white"/>
<path d="M369.14 21.69C367.87 21.69 366.62 21.78 365.39 21.96C356.74 8.74 341.81 0 324.83 0C298.07 0 276.38 21.69 276.38 48.45C276.38 75.21 298.07 96.9 324.83 96.9C341.81 96.9 356.74 88.16 365.39 74.94C366.61 75.11 367.86 75.21 369.14 75.21C383.92 75.21 395.9 63.23 395.9 48.46C395.9 33.69 383.92 21.71 369.14 21.71V21.69ZM369.14 72.43C368.41 72.43 367.7 72.39 366.99 72.32C366.45 72.27 365.91 72.19 365.38 72.11C364.84 72.03 364.31 71.93 363.79 71.82C363.11 71.66 362.44 71.49 361.78 71.28C357.49 69.9 353.74 67.34 350.89 64C347.32 59.81 345.15 54.39 345.15 48.46C345.15 42.53 347.48 36.73 351.28 32.49C354.08 29.36 357.69 26.96 361.78 25.64C362.37 25.45 362.97 25.3 363.58 25.15C363.5 25.21 363.42 25.27 363.34 25.34C363.27 25.4 363.21 25.46 363.14 25.53C362.84 25.84 362.58 26.21 362.39 26.65C362.38 26.67 362.37 26.69 362.36 26.72C362.19 27.13 362.11 27.55 362.12 27.96C358.3 29.27 354.96 31.59 352.43 34.63C349.32 38.38 347.45 43.2 347.45 48.45C347.45 53.7 349.2 58.15 352.1 61.84C354.84 65.32 358.62 67.95 362.97 69.23C363.62 69.42 364.29 69.59 364.96 69.72C366.01 69.93 367.08 70.03 368.17 70.08C368.39 70.08 368.6 70.11 368.82 70.12C368.92 70.12 369.02 70.13 369.13 70.13C381.11 70.13 390.81 60.42 390.81 48.45C390.81 36.48 382 27.72 370.81 26.85C370.25 26.81 369.69 26.77 369.12 26.77C369.07 26.77 369.02 26.77 368.97 26.77C368.89 26.28 368.71 25.85 368.45 25.49C368.21 25.16 367.9 24.89 367.48 24.69C367.37 24.64 367.26 24.6 367.15 24.56C367.8 24.51 368.45 24.46 369.12 24.46C382.37 24.46 393.11 35.2 393.11 48.45C393.11 61.7 382.37 72.44 369.12 72.44L369.14 72.43ZM324.83 91.88C300.84 91.88 281.4 72.43 281.4 48.45C281.4 24.47 300.85 5.02 324.83 5.02C338.78 5.02 351.18 11.6 359.13 21.82L348.2 28.13C342.58 21.5 334.2 17.29 324.83 17.29C307.91 17.29 294.2 31 294.2 47.91C294.2 64.82 307.91 78.53 324.83 78.53C334.2 78.53 342.58 74.32 348.2 67.69L359.71 74.33C351.79 84.98 339.12 91.88 324.83 91.88ZM363.77 25.65C363.85 25.59 363.94 25.54 364.02 25.48C364.61 25.08 365.28 24.89 365.99 24.9C366.53 24.88 366.97 24.99 367.34 25.18C367.98 25.51 368.36 26.11 368.48 26.79C368.49 26.85 368.5 26.9 368.51 26.96C368.53 27.13 368.54 27.3 368.52 27.47C368.52 27.51 368.5 27.56 368.5 27.6C368.48 27.74 368.47 27.89 368.43 28.03C368.3 28.53 368.1 29 367.83 29.43C367.75 29.57 367.65 29.66 367.47 29.67C367.06 29.69 366.68 29.78 366.31 29.91C365.92 30.04 365.54 30.21 365.18 30.41C364.99 30.51 364.83 30.53 364.63 30.46C364.51 30.42 364.42 30.36 364.31 30.31C363.53 29.96 362.99 29.39 362.77 28.56C362.74 28.46 362.7 28.37 362.68 28.27C362.66 28.15 362.68 28.03 362.68 27.92C362.68 27.86 362.68 27.8 362.68 27.74C362.68 27.56 362.71 27.39 362.75 27.23C362.89 26.62 363.24 26.09 363.79 25.65H363.77ZM369.14 69.31C368.95 69.31 368.77 69.29 368.58 69.28C367.48 69.25 366.41 69.14 365.36 68.95C364.68 68.83 364.02 68.67 363.36 68.48C358.97 67.22 355.19 64.56 352.51 61.01C349.86 57.51 348.27 53.17 348.27 48.44C348.27 43.71 349.98 39.03 352.81 35.46C355.24 32.41 358.5 30.07 362.25 28.76C362.51 29.62 363.14 30.38 364.07 30.81C364.17 30.86 364.46 30.87 364.18 31.08C362.68 32.24 361.81 33.8 361.42 35.61C360.88 38.14 361.15 40.59 362.33 42.91C362.74 43.72 363.28 44.45 364.14 44.85C364.35 44.95 364.27 45.02 364.14 45.11C363.33 45.66 362.46 46.1 361.55 46.48C360.32 46.99 359.01 47.24 357.76 47.7C356.91 48.01 356.12 48.42 355.42 48.95C355.01 49.27 354.62 49.62 354.3 50.05C352.82 52.01 352.32 54.22 352.95 56.62C353.11 57.24 353.34 57.82 353.6 58.39C354.24 59.77 355.13 61 356.17 62.14C357.02 63.07 357.98 63.87 359 64.59C360.56 65.68 362.26 66.48 364.08 67.02C364.23 67.06 364.37 67.12 364.53 67.16C365.04 67.3 365.55 67.39 366.06 67.48C367.12 67.67 368.19 67.76 369.26 67.75C370.4 67.75 371.54 67.66 372.68 67.45C373.14 67.37 373.57 67.23 374.01 67.11C376.25 66.49 378.29 65.45 380.14 63.99C380.59 63.63 381.01 63.23 381.43 62.83C381.54 62.73 381.64 62.63 381.75 62.53C382.48 61.85 383.12 61.1 383.69 60.3C383.77 60.18 383.86 60.07 383.94 59.95C384.43 59.28 384.92 58.6 385.32 57.87C386.28 56.12 387.15 54.34 387.72 52.42C387.87 51.93 387.98 51.43 387.93 50.91C387.89 50.47 387.72 50.27 387.27 50.21C387.1 50.19 387.12 50.09 387.12 49.99C387.12 49.69 387.14 49.38 387.06 49.08C386.99 48.82 386.92 48.53 386.6 48.46C386.42 48.42 386.38 48.32 386.35 48.17C386.26 47.67 386.02 47.25 385.67 46.89C385.17 46.38 384.58 46.05 383.93 45.85C383.6 45.75 383.26 45.67 382.91 45.63C382.43 45.58 381.98 45.44 381.72 44.99C381.46 44.55 381.59 43.85 381.97 43.45C382.37 43.03 382.97 42.9 383.46 43.14C383.73 43.26 383.88 43.48 383.93 43.73C383.95 43.83 383.95 43.93 383.93 44.03C383.92 44.09 383.91 44.16 383.89 44.23C383.77 44.5 383.53 44.58 383.28 44.55C383.01 44.53 382.87 44.36 382.89 44.08C382.9 43.9 382.83 43.77 382.64 43.78C382.45 43.78 382.37 43.93 382.38 44.09C382.38 44.43 382.49 44.73 382.81 44.91C383.16 45.1 383.61 45.09 383.94 44.91C384.05 44.85 384.16 44.77 384.23 44.66C384.57 44.21 384.54 43.41 384.16 43.02C384.09 42.95 384.01 42.89 383.93 42.83C383.16 42.28 381.95 42.47 381.43 43.29C380.91 44.11 380.95 44.77 381.59 45.68C380.28 46.01 379.11 46.59 378.33 47.74C377.55 48.88 377.23 50.12 377.75 51.48C377.68 51.48 377.65 51.48 377.62 51.48C377.54 51.46 377.45 51.43 377.38 51.39C376.44 50.98 375.65 50.4 375.06 49.55C374.88 49.29 374.69 49.04 374.5 48.79C374.32 48.55 374.1 48.4 373.8 48.51C373.5 48.62 373.5 48.91 373.51 49.17C373.51 49.22 373.55 49.27 373.51 49.33C373.42 49.36 373.37 49.3 373.3 49.27C373.28 49.27 373.27 49.25 373.25 49.25C372.98 49.12 372.69 48.97 372.42 49.21C372.12 49.46 372.25 49.79 372.4 50.08C372.48 50.25 372.46 50.29 372.27 50.32C371.94 50.37 371.8 50.6 371.88 50.93C371.92 51.12 372 51.31 372.12 51.46C372.42 51.87 372.75 52.24 373.1 52.59C374.14 53.63 375.38 54.39 376.8 54.92C376.98 54.99 377.19 55.05 377.27 54.81C377.36 54.56 377.14 54.51 376.96 54.44C376.15 54.18 375.39 53.78 374.7 53.29C374.14 52.89 373.61 52.44 373.14 51.93C372.91 51.68 372.69 51.42 372.5 51.13C372.44 51.04 372.37 50.96 372.42 50.84C372.68 50.82 372.86 51.01 373.08 51.1C373.12 51.12 373.16 51.14 373.21 51.17C373.36 51.27 373.52 51.39 373.68 51.17C373.86 50.92 373.57 50.79 373.44 50.63C373.37 50.55 373.31 50.47 373.24 50.39C373.05 50.17 372.87 49.94 372.78 49.62C372.96 49.68 373.11 49.75 373.25 49.83C373.43 49.92 373.59 50.03 373.74 50.15C373.87 50.26 374.01 50.36 374.18 50.24C374.34 50.12 374.27 49.97 374.22 49.83C374.15 49.6 374.04 49.38 374.07 49.04C374.26 49.3 374.4 49.48 374.54 49.68C375.37 50.9 376.48 51.72 377.91 52.09C378.09 52.13 378.22 52.21 378.33 52.35C378.98 53.14 379.79 53.68 380.81 53.87C381.04 53.91 381.27 53.95 381.51 54C381.49 54.13 381.41 54.21 381.35 54.29C380.33 55.57 379.17 56.72 377.87 57.71C376.59 58.69 375.21 59.5 373.67 59.99C373.05 60.18 372.44 60.28 371.82 60.35C370.79 60.45 369.76 60.39 368.73 60.2C368.52 60.16 368.31 60.14 368.1 60.08C367.66 59.98 367.22 59.86 366.8 59.72C364.14 58.91 361.76 57.59 359.83 55.47C359.7 55.33 359.56 55.26 359.41 55.4C359.27 55.53 359.33 55.68 359.44 55.8C359.72 56.1 359.98 56.43 360.3 56.7C362.19 58.34 364.32 59.5 366.67 60.22C367.17 60.37 367.68 60.51 368.2 60.62C368.34 60.65 368.47 60.66 368.61 60.69C369.64 60.88 370.68 60.95 371.7 60.87C372.41 60.81 373.13 60.7 373.83 60.47C376.68 59.53 378.94 57.73 380.95 55.56C382.03 54.39 382.91 53.1 383.58 51.65C383.69 51.41 383.82 51.18 383.99 50.96C384.04 50.89 384.09 50.81 384.15 50.75C384.2 50.89 384.15 50.99 384.12 51.1C384.09 51.22 384.03 51.33 383.99 51.46C383.75 52.15 383.45 52.82 383.08 53.45C383 53.6 382.93 53.76 383.1 53.89C383.28 54.02 383.4 53.89 383.51 53.76C383.68 53.54 383.83 53.31 383.99 53.09C384.77 51.96 385.37 50.75 385.5 49.33C385.53 49.04 385.52 48.72 385.7 48.44C385.79 48.57 385.8 48.7 385.81 48.83C385.88 50.46 385.52 51.96 384.53 53.28C384.44 53.4 384.4 53.51 384.5 53.63C384.61 53.76 384.75 53.74 384.88 53.66C384.96 53.61 385.01 53.52 385.07 53.44C385.79 52.51 386.13 51.43 386.28 50.28C386.33 49.87 386.35 49.44 386.51 49.02C386.64 49.3 386.67 49.35 386.66 49.63C386.62 50.97 386.43 52.27 385.69 53.44C385.6 53.58 385.57 53.73 385.73 53.84C385.88 53.94 386 53.87 386.09 53.74C386.29 53.48 386.43 53.18 386.56 52.88C386.79 52.34 386.9 51.76 387.05 51.19C387.1 51.02 387.15 50.73 387.37 50.77C387.54 50.81 387.48 51.09 387.47 51.27C387.43 52.03 387.19 52.75 386.91 53.44C386.19 55.19 385.44 56.92 384.4 58.51C384.27 58.71 384.13 58.91 384 59.11C383.67 59.6 383.33 60.09 382.96 60.55C382.2 61.48 381.36 62.35 380.45 63.14C379.96 63.56 379.45 63.96 378.91 64.32C378.76 64.43 378.61 64.54 378.45 64.64C377.88 65 377.3 65.31 376.71 65.59C375.28 66.29 373.77 66.78 372.16 67.04C371.28 67.18 370.41 67.25 369.54 67.27C368.46 67.29 367.39 67.21 366.33 67.03C365.67 66.92 365.01 66.76 364.35 66.57C364.18 66.52 364.01 66.48 363.85 66.42C361.45 65.64 359.32 64.4 357.46 62.67C356.11 61.41 354.98 60 354.18 58.33C354.08 58.12 353.98 57.91 353.9 57.7C353.32 56.29 353.05 54.83 353.42 53.28C353.73 51.95 354.29 50.76 355.3 49.8C355.35 49.75 355.41 49.72 355.46 49.67C356.32 48.91 357.32 48.41 358.4 48.06C359.54 47.69 360.7 47.42 361.81 46.96C363.68 46.19 365.34 45.14 366.64 43.56C366.78 43.38 366.91 43.17 367.22 43.26C367.36 43.29 367.54 43.22 367.53 43.01C367.53 42.82 367.39 42.75 367.22 42.76C367.06 42.76 366.93 42.7 366.8 42.6C366.25 42.13 366.11 40.95 366.54 40.37C366.79 40.02 367.19 39.96 367.52 40.16C367.59 40.2 367.66 40.24 367.71 40.3C367.94 40.54 368.1 40.82 368.16 41.16C368.19 41.34 368.23 41.49 368.45 41.47C368.68 41.45 368.7 41.25 368.64 41.1C368.5 40.74 368.68 40.47 368.85 40.19C369.02 39.91 369.2 39.62 369.38 39.34C369.44 39.26 369.48 39.17 369.54 39.08C370.14 38.23 370.81 37.45 371.73 36.92C371.79 36.89 371.85 36.86 371.9 36.83C372.36 36.58 372.85 36.41 373.37 36.51C374.79 36.78 376.24 37.86 376.21 39.74C376.19 41.08 375.71 42.29 375.22 43.5C375.19 43.58 375.14 43.66 375.04 43.67C374.71 43.72 374.21 43.56 374.19 43.12C374.19 42.93 374.15 42.74 373.91 42.78C373.67 42.82 373.68 43.03 373.7 43.22C373.76 43.77 374.12 44.04 374.61 44.16C374.87 44.22 374.84 44.29 374.75 44.49C374.49 45.09 374.11 45.6 373.72 46.1C373.58 46.28 373.43 46.44 373.28 46.6C372.6 47.34 371.81 47.95 370.93 48.46C370.82 48.42 370.75 48.5 370.66 48.54C370.54 48.59 370.42 48.63 370.3 48.67C369.63 48.89 368.96 48.99 368.3 48.78C368.11 48.72 367.93 48.64 367.74 48.52C367.1 48.11 366.44 48.35 366.01 48.83C365.34 49.56 364.93 50.43 364.57 51.33C364.31 51.98 364.06 52.65 363.99 53.36C363.97 53.51 364 53.65 364.19 53.66C364.36 53.68 364.44 53.59 364.47 53.42C364.6 52.66 364.86 51.93 365.17 51.22C365.51 50.44 365.87 49.67 366.49 49.07C366.83 48.74 367.06 48.72 367.45 48.95C367.67 49.08 367.9 49.19 368.14 49.24C368.19 49.25 368.24 49.26 368.3 49.27C368.98 49.42 369.65 49.45 370.3 49.11C370.34 49.09 370.38 49.08 370.42 49.06C370.57 49.11 370.7 49.06 370.83 49.01C371.78 48.61 372.59 48.02 373.31 47.32C373.41 47.23 373.51 47.14 373.6 47.04C374.86 45.71 375.58 44.07 376.22 42.39C376.28 42.23 376.33 42.06 376.43 41.91C376.73 41.47 376.98 41 377.18 40.5C378.12 38.21 377.96 36 376.52 33.96C374.89 31.65 372.59 30.37 369.85 29.8C369.77 29.78 369.69 29.78 369.61 29.77C369.22 29.71 368.81 29.68 368.4 29.61C368.44 29.52 368.47 29.47 368.49 29.42C368.67 29.04 368.83 28.65 368.94 28.26C369 28.03 369.05 27.81 369.07 27.57C369.11 27.57 369.15 27.57 369.19 27.57C370.39 27.57 371.55 27.69 372.69 27.89C382.55 29.56 390.06 38.11 390.06 48.44C390.06 59.57 381.34 68.64 370.37 69.25C369.98 69.27 369.59 69.31 369.19 69.31H369.14ZM366.19 42.72C366.35 42.96 366.34 43.08 366.16 43.29C365.82 43.68 365.47 44.04 365.09 44.39C364.93 44.54 364.77 44.57 364.56 44.5C363.93 44.28 363.5 43.82 363.15 43.29C362.3 42.04 361.91 40.62 361.74 39.13C361.57 37.53 361.72 35.96 362.32 34.45C362.78 33.27 363.48 32.24 364.48 31.47C364.57 31.4 364.66 31.36 364.75 31.3C365.31 30.9 365.9 30.59 366.53 30.41C367.2 30.21 367.91 30.12 368.67 30.19C369.05 30.22 369.42 30.28 369.78 30.35C371.86 30.74 373.68 31.7 375.21 33.24C376.46 34.49 377.21 36 377.19 37.81C377.19 38.58 377.07 39.34 376.72 40.12C376.69 39.73 376.67 39.41 376.64 39.09C376.45 37.3 374.34 35.7 372.61 36.04C372.31 36.1 372.03 36.2 371.76 36.32C371.06 36.64 370.47 37.15 369.93 37.74C369.66 38.03 369.42 38.34 369.19 38.66C368.91 39.05 368.66 39.45 368.42 39.87C368.31 40.07 368.24 40.18 368.01 39.94C367.81 39.74 367.58 39.62 367.35 39.57C366.78 39.44 366.18 39.73 365.91 40.37C365.56 41.21 365.7 42 366.19 42.72ZM379.6 47.92C379.45 47.93 379.3 47.92 379.24 47.77C379.18 47.63 379.22 47.48 379.34 47.39C380.55 46.39 381.92 45.91 383.49 46.24C383.65 46.27 383.81 46.32 383.96 46.37C384.49 46.55 384.97 46.85 385.37 47.29C385.44 47.37 385.5 47.46 385.57 47.55C385.67 47.7 385.75 47.82 385.49 47.93C385.21 48.04 385.12 48.32 385.08 48.59C385 49.03 384.95 49.47 384.88 49.91C384.85 50.1 384.79 50.29 384.75 50.5C384.49 50.14 384.23 50.06 383.98 50.22C383.87 50.29 383.75 50.39 383.64 50.55C383.22 51.14 382.93 51.79 382.6 52.43C382.56 52.52 382.52 52.61 382.47 52.69C381.94 53.56 382.16 53.55 381.05 53.41C379.56 53.22 378.25 51.93 378.06 50.5C377.95 49.66 378.25 48.92 378.68 48.22C378.77 48.08 378.82 48.11 378.93 48.2C379.13 48.39 379.37 48.48 379.65 48.44C379.81 48.42 379.96 48.36 379.95 48.16C379.94 47.97 379.8 47.91 379.63 47.92H379.6Z" fill="#EF83B3"/>
<path d="M370.42 44.3499C370.3 44.2499 370.18 44.2299 370.07 44.3199C369.95 44.4099 369.95 44.5399 370.03 44.6599C370.05 44.6899 370.08 44.7199 370.1 44.7399C370.3 44.9999 370.54 45.1999 370.83 45.1799C371.37 45.1799 371.69 44.9199 371.94 44.5799C372.39 43.9699 372.66 43.2799 372.92 42.5899C372.97 42.4399 373.03 42.2999 373.09 42.1499C373.15 42.0099 373.1 41.8899 372.96 41.8299C372.91 41.8099 372.87 41.8199 372.82 41.8299C372.74 41.8399 372.68 41.8799 372.63 41.9699C372.56 42.1199 372.5 42.2699 372.44 42.4199C372.2 43.0399 371.97 43.6599 371.58 44.2099C371.17 44.7899 370.92 44.8199 370.41 44.3499H370.42Z" fill="#EF83B3"/>
<path d="M368.17 45.71C368.34 46.37 368.74 46.86 369.39 47.12C369.56 47.19 369.77 47.22 369.86 46.98C369.94 46.75 369.76 46.69 369.58 46.63C368.97 46.42 368.58 45.84 368.59 45.13V45C368.59 44.85 368.62 44.68 368.4 44.65C368.18 44.63 368.14 44.76 368.1 44.92C368.1 44.92 368.1 44.94 368.1 44.95C368.06 45.18 368.1 45.41 368.14 45.63C368.14 45.66 368.16 45.68 368.17 45.71Z" fill="#EF83B3"/>
<path d="M371.41 42.03C371.41 42.03 371.51 42.03 371.56 42C371.72 41.96 371.87 41.91 371.84 41.71C371.81 41.51 371.65 41.5 371.49 41.5C370.83 41.5 370.45 41.22 370.35 40.66C370.32 40.47 370.25 40.33 370.05 40.36C369.85 40.4 369.82 40.56 369.85 40.74C369.95 41.44 370.62 42.01 371.4 42.01L371.41 42.03Z" fill="#EF83B3"/>
<path d="M378.93 50.6801C378.74 50.8501 378.88 51.0201 378.99 51.1601C379.37 51.6501 379.89 51.8501 380.52 51.8801C380.94 51.8801 381.35 51.7601 381.72 51.5101C381.88 51.4001 382.01 51.2501 381.86 51.0501C381.71 50.8501 381.56 50.9801 381.42 51.0801C380.76 51.5601 379.89 51.4501 379.38 50.8201C379.26 50.6701 379.14 50.5001 378.93 50.6801Z" fill="#EF83B3"/>
<path d="M381.76 50.15C381.92 50.13 382.17 50.15 382.18 49.86C382.2 49.57 381.98 49.59 381.77 49.62C381.57 49.64 381.43 49.56 381.4 49.34C381.38 49.18 381.28 49.11 381.13 49.13C380.95 49.15 380.91 49.28 380.92 49.44C380.92 49.82 381.27 50.13 381.75 50.15H381.76Z" fill="#EF83B3"/>
</svg>
